<svg width="2367" height="1572" viewBox="0 0 2367.000000 1572.000000" xmlns="http://www.w3.org/2000/svg">
  <defs>
    <linearGradient id="goldGrad" x1="0%" y1="0%" x2="100%" y2="100%">
      <stop offset="0%" stop-color="#fdf1c4"/>
      <stop offset="18%" stop-color="#eecb70"/>
      <stop offset="42%" stop-color="#a97a2a"/>
      <stop offset="55%" stop-color="#c9982f"/>
      <stop offset="75%" stop-color="#f4de8f"/>
      <stop offset="100%" stop-color="#a6772a"/>
    </linearGradient>
    <linearGradient id="silverGrad" x1="0%" y1="0%" x2="0%" y2="100%">
      <stop offset="0%" stop-color="#ffffff"/>
      <stop offset="22%" stop-color="#eaeaea"/>
      <stop offset="48%" stop-color="#8f8f8f"/>
      <stop offset="65%" stop-color="#d4d4d4"/>
      <stop offset="100%" stop-color="#6c6c6c"/>
    </linearGradient>
  </defs>

  <rect x="0" y="0" width="2367" height="1572" fill="#0a0a0a"/>

  <g transform="translate(0.000000,1572.000000) scale(0.100000,-0.100000)" fill="url(#goldGrad)" stroke="none">

<path d="M10793 15063 c9 -2 25 -2 35 0 9 3 1 5 -18 5 -19 0 -27 -2 -17 -5z
M10992 15063 c59 -2 158 -2 220 0 62 1 14 3 -107 3 -121 0 -172 -2 -113 -3z
M10583 15053 c9 -2 23 -2 30 0 6 3 -1 5 -18 5 -16 0 -22 -2 -12 -5z M11443
15053 c15 -2 37 -2 50 0 12 2 0 4 -28 4 -27 0 -38 -2 -22 -4z M10493 15043 c9
-2 23 -2 30 0 6 3 -1 5 -18 5 -16 0 -22 -2 -12 -5z M10313 15033 c9 -2 23 -2
30 0 6 3 -1 5 -18 5 -16 0 -22 -2 -12 -5z M10048 15003 c12 -2 30 -2 40 0 9 3
-1 5 -23 4 -22 0 -30 -2 -17 -4z M10913 14973 c-62 -6 -53 -23 12 -23 30 0 55
-4 55 -10 0 -6 -27 -10 -62 -10 -92 0 -355 -19 -493 -35 -169 -20 -295 -30
-333 -27 -18 2 -72 -4 -120 -14 -114 -21 -281 -45 -360 -51 -52 -4 -66 -2 -76
12 -9 13 -20 16 -44 10 -37 -8 -41 -18 -11 -31 18 -8 12 -13 -43 -31 -34 -12
-93 -27 -130 -33 -36 -5 -120 -24 -185 -41 -65 -17 -143 -37 -173 -44 -30 -8
-86 -21 -125 -31 -38 -9 -94 -25 -123 -35 -58 -21 -72 -23 -72 -11 0 4 26 17
58 27 31 11 63 25 70 32 7 7 25 13 40 13 15 1 43 9 62 20 l35 19 -38 1 c-21 0
-64 -9 -96 -20 -32 -11 -78 -22 -102 -26 -46 -6 -327 -91 -344 -103 -5 -4 -39
-18 -75 -31 -36 -13 -76 -30 -90 -37 -14 -7 -32 -13 -41 -13 -15 0 -58 -15
-114 -40 -65 -28 -265 -113 -354 -150 -58 -24 -129 -56 -160 -72 -58 -30 -71
-33 -71 -19 0 5 11 12 25 15 14 4 25 10 25 15 0 5 21 19 48 31 26 12 54 26 62
31 8 5 25 13 38 19 12 5 22 14 22 21 0 9 -244 -112 -380 -188 -19 -11 -71 -39
-115 -63 -133 -72 -260 -151 -520 -323 -294 -195 -615 -454 -900 -727 -71 -69
-158 -152 -193 -185 -81 -77 -361 -396 -483 -550 -184 -231 -462 -631 -549
-790 -18 -33 -39 -67 -46 -76 -8 -8 -14 -19 -14 -22 0 -4 -18 -37 -41 -73 -37
-62 -298 -584 -341 -684 -11 -25 -23 -53 -29 -62 -5 -10 -9 -22 -9 -28 0 -5
-13 -38 -29 -72 -16 -35 -39 -88 -51 -118 -11 -30 -25 -64 -30 -75 -10 -23
-88 -254 -100 -300 -5 -16 -20 -61 -33 -100 -23 -62 -52 -163 -92 -320 -69
-268 -77 -301 -114 -500 -58 -311 -73 -416 -105 -750 -23 -239 -26 -311 -26
-650 0 -398 6 -570 25 -755 35 -335 83 -629 159 -977 40 -180 184 -667 225
-758 5 -11 19 -49 31 -85 33 -96 167 -435 200 -505 15 -33 40 -87 55 -120 46
-100 134 -276 170 -340 19 -33 41 -73 49 -90 8 -16 29 -52 45 -80 17 -27 34
-57 38 -65 26 -53 213 -359 261 -426 238 -337 469 -641 525 -689 7 -5 55 -59
108 -120 106 -121 534 -545 614 -608 27 -21 83 -69 123 -105 40 -36 94 -81
120 -101 26 -19 77 -60 113 -91 36 -30 83 -68 105 -83 21 -15 85 -61 141 -102
346 -251 913 -587 1223 -724 30 -14 89 -40 130 -59 543 -247 1217 -460 1795
-567 532 -99 1192 -144 1700 -116 425 24 882 76 1090 126 33 8 148 32 255 55
107 22 224 49 260 59 36 10 110 31 165 46 229 63 648 209 866 304 264 113 351
153 479 219 232 119 399 209 421 228 8 8 19 14 23 14 3 0 23 11 44 24 20 13
105 65 187 116 285 176 605 409 818 595 45 39 114 98 154 133 137 117 464 438
550 538 89 105 124 145 163 189 25 27 72 84 105 125 33 41 63 77 66 80 23 18
275 365 364 501 98 148 225 355 225 365 0 2 19 34 41 71 96 157 260 480 350
690 39 92 75 174 80 182 10 21 95 240 102 266 3 11 22 65 42 120 88 244 193
611 239 830 8 39 20 95 26 125 56 269 92 501 128 840 24 230 23 1118 -1 1380
-26 276 -77 620 -124 835 -22 103 -66 298 -77 345 -11 45 -58 219 -65 240 -5
14 -19 61 -31 105 -42 150 -149 461 -203 590 -14 33 -42 101 -62 150 -103 249
-305 648 -443 877 -114 189 -139 229 -209 333 -98 147 -217 311 -300 415 -7 8
-35 44 -63 80 -29 36 -66 83 -83 105 -36 45 -168 192 -240 269 l-48 51 48 -65
c26 -36 55 -72 64 -80 32 -28 242 -280 312 -374 67 -90 137 -196 137 -209 0
-13 -50 37 -50 50 -1 4 -11 20 -23 34 -12 14 -67 82 -122 150 -225 281 -701
771 -827 853 -29 19 -64 47 -78 63 -29 33 -150 138 -197 171 -39 27 -77 33
-78 12 0 -31 -41 -21 -87 22 -47 44 -51 48 -105 88 -18 13 -33 29 -33 35 0 6
-16 19 -35 29 -42 23 -44 39 -9 52 l26 9 -49 36 c-63 47 -144 64 -101 21 6 -6
9 -14 6 -18 -8 -8 -122 56 -221 123 -44 29 -93 61 -110 69 -18 9 -43 26 -57
38 -46 41 -578 326 -663 355 -29 10 -69 30 -89 43 -21 14 -75 38 -120 53 -46
15 -87 31 -93 35 -5 4 -82 36 -170 70 -260 100 -337 128 -385 140 -25 7 -58
19 -73 27 -16 8 -63 23 -105 34 -43 11 -120 33 -172 48 -52 16 -131 36 -175
45 -44 10 -94 22 -110 27 -76 22 -190 49 -211 49 -12 0 -71 16 -131 35 -59 19
-122 35 -140 35 -53 0 -266 30 -298 41 -30 11 -108 19 -360 38 -71 5 -152 14
-180 20 -55 11 -151 17 -405 26 -198 7 -216 10 -200 30 10 12 10 15 -1 15 -8
0 -23 2 -34 4 -11 1 -39 1 -62 -1z m770 -112 c247 -23 357 -37 677 -87 201
-31 682 -143 840 -195 14 -4 68 -19 120 -33 174 -47 477 -156 765 -277 11 -4
76 -31 145 -60 147 -61 581 -280 677 -342 24 -15 45 -27 48 -27 3 0 30 -15 58
-33 29 -19 100 -62 157 -97 98 -59 447 -302 516 -359 17 -14 66 -53 109 -86
283 -216 696 -608 908 -861 17 -21 48 -57 68 -79 117 -132 433 -558 529 -715
29 -47 67 -107 85 -135 18 -27 47 -77 65 -110 18 -33 37 -65 42 -71 5 -7 27
-47 50 -90 23 -44 51 -95 63 -114 26 -41 121 -238 215 -445 21 -46 134 -320
157 -380 8 -22 20 -51 25 -65 30 -74 80 -228 159 -485 108 -351 204 -830 254
-1275 55 -476 59 -1208 10 -1600 -8 -63 -22 -173 -31 -245 -8 -71 -22 -166
-30 -210 -56 -312 -87 -462 -120 -590 -50 -190 -70 -263 -89 -315 -7 -19 -21
-62 -30 -95 -10 -33 -22 -71 -28 -85 -5 -14 -13 -38 -17 -55 -9 -34 -91 -263
-110 -310 -7 -16 -16 -39 -21 -50 -34 -84 -153 -362 -159 -374 -5 -9 -52 -104
-105 -211 -53 -107 -106 -213 -119 -235 -12 -22 -35 -62 -50 -90 -52 -92 -226
-379 -276 -455 -28 -41 -54 -84 -60 -95 -33 -67 -322 -439 -495 -639 -77 -89
-142 -163 -145 -166 -50 -48 -178 -189 -160 -177 14 9 38 24 54 33 l29 16 -22
-30 c-24 -35 -161 -174 -212 -216 -18 -15 -63 -56 -99 -90 -36 -33 -87 -79
-114 -101 -27 -22 -56 -48 -65 -58 -8 -9 -19 -17 -24 -17 -4 0 -20 -12 -35
-28 -50 -51 -180 -160 -224 -189 -23 -15 -77 -53 -118 -83 -41 -31 -88 -64
-105 -75 -16 -10 -41 -29 -55 -42 -14 -13 -48 -38 -76 -56 -28 -17 -84 -54
-125 -81 -133 -87 -153 -100 -229 -139 -41 -22 -82 -45 -90 -51 -28 -22 -70
-39 -77 -32 -9 8 30 42 65 56 12 5 22 14 22 20 0 9 -34 -7 -105 -50 -49 -30
-229 -124 -404 -212 -107 -54 -157 -84 -143 -86 11 -2 40 9 64 24 63 41 110
64 129 64 9 0 19 7 23 15 3 8 16 15 30 15 13 0 26 7 30 15 3 8 16 15 30 15 13
0 26 7 30 15 3 8 14 15 24 15 11 0 25 7 32 15 7 8 20 15 30 15 10 0 20 7 24
15 3 8 17 15 31 15 16 0 25 6 25 15 0 8 9 15 20 15 27 0 25 -18 -2 -31 -13 -5
-32 -15 -43 -22 -90 -54 -115 -67 -126 -67 -7 0 -20 -6 -28 -14 -15 -13 -81
-50 -156 -88 -93 -47 -221 -108 -228 -108 -4 0 -37 -14 -74 -31 -118 -53 -133
-59 -151 -59 -9 0 -26 -7 -36 -15 -22 -16 -56 -20 -56 -7 0 11 66 40 104 47
17 2 34 11 38 20 5 8 20 15 32 15 13 0 26 7 30 15 6 17 -5 20 -20 6 -5 -5 -52
-25 -104 -45 -52 -21 -108 -43 -125 -51 -16 -7 -50 -20 -75 -28 -25 -9 -61
-22 -80 -31 -35 -15 -35 -15 -7 -16 15 0 38 7 50 15 21 13 60 5 46 -10 -7 -6
-314 -114 -349 -122 -14 -3 -29 -9 -35 -13 -5 -4 -50 -18 -100 -30 -49 -12
-103 -28 -120 -36 -63 -30 -492 -133 -557 -134 -34 0 -46 18 -16 24 145 28
151 29 274 61 49 12 99 34 80 35 -8 0 -170 -37 -281 -65 -33 -9 -82 -20 -110
-24 -27 -5 -115 -21 -195 -35 -266 -47 -434 -69 -660 -86 -645 -48 -949 -38
-1720 57 -26 3 -31 2 -20 -6 8 -6 24 -11 35 -11 11 0 29 -8 40 -16 19 -15 16
-16 -35 -10 -141 15 -202 34 -120 37 25 1 48 1 53 0 4 0 7 3 7 8 0 4 -19 11
-42 14 -46 6 -164 27 -288 51 -41 8 -133 29 -205 46 -71 17 -157 37 -190 45
-33 7 -73 18 -88 24 -16 6 -36 11 -45 11 -19 -1 43 -26 103 -42 22 -6 45 -15
51 -19 12 -10 63 -21 189 -43 44 -8 109 -21 145 -30 36 -8 78 -18 94 -21 56
-12 18 -14 -89 -5 -64 5 -143 19 -190 33 -44 14 -143 40 -220 58 -77 18 -171
45 -209 61 -38 15 -76 28 -85 28 -10 0 -26 7 -37 15 -18 13 -16 14 26 15 l45
1 -35 13 c-40 16 -210 73 -255 86 -16 5 -41 12 -54 16 -16 5 -22 4 -18 -3 4
-6 21 -13 39 -17 45 -9 138 -48 138 -58 0 -15 -46 -8 -125 17 -77 25 -135 53
-135 65 0 3 17 4 38 3 53 -5 29 7 -116 61 -67 25 -129 50 -139 55 -17 9 -241
103 -280 118 -16 6 -16 5 -4 -10 7 -9 23 -17 35 -17 11 0 30 -7 40 -15 11 -8
27 -15 35 -15 15 -1 71 -43 71 -54 0 -8 -97 24 -147 48 -27 13 -77 36 -112 51
-125 52 -296 147 -284 158 11 12 34 8 49 -8 9 -8 20 -15 25 -15 20 0 -3 20
-49 43 -45 23 -118 63 -207 114 -22 12 -47 26 -55 30 -8 3 -32 17 -53 30 -20
13 -37 20 -37 15 0 -12 57 -52 73 -52 8 0 20 -7 27 -15 7 -8 20 -15 30 -15 10
0 20 -7 24 -15 3 -8 14 -15 24 -15 11 0 25 -7 32 -15 7 -8 19 -15 27 -15 7 0
16 -7 19 -15 4 -8 14 -15 24 -15 20 0 36 -17 25 -28 -8 -8 -108 43 -249 127
-60 37 -139 82 -175 101 -36 19 -112 67 -169 105 -57 39 -111 75 -120 80 -9 6
-41 28 -72 51 -30 22 -73 51 -95 64 -22 14 -78 54 -124 90 -47 36 -104 79
-127 95 -23 17 -61 44 -84 60 -24 17 -66 51 -94 76 -28 25 -64 55 -80 67 -16
13 -75 65 -130 116 -56 51 -123 112 -151 136 -27 23 -59 50 -70 60 -34 29
-335 348 -358 377 -11 16 -41 51 -66 78 -83 91 -120 140 -120 155 0 9 8 4 22
-14 23 -29 50 -59 222 -242 203 -217 588 -594 606 -594 6 0 24 -13 42 -30 18
-16 35 -30 40 -30 4 0 7 -6 7 -14 0 -7 8 -16 18 -20 9 -3 33 -15 52 -26 l35
-21 -25 21 c-14 12 -72 60 -130 108 -198 164 -600 561 -750 741 -25 30 -59 69
-77 87 -17 18 -59 68 -92 111 -33 43 -74 94 -90 113 -17 19 -31 40 -31 47 0 7
-6 16 -13 20 -15 10 -77 88 -77 98 0 4 -15 25 -34 48 -42 52 -108 152 -200
299 -22 35 -44 66 -49 69 -9 6 -13 12 -60 95 -15 27 -36 63 -47 79 -10 17 -30
50 -43 75 -14 25 -34 61 -45 80 -87 148 -362 710 -362 740 0 8 -25 63 -51 112
-5 10 -9 25 -9 34 0 9 -6 28 -13 42 -23 45 -45 96 -50 117 -3 11 -22 65 -42
120 -20 55 -40 114 -44 131 -5 18 -11 37 -15 43 -4 6 -13 32 -20 58 -8 27 -21
73 -30 103 -15 50 -32 114 -55 210 -5 19 -14 58 -21 85 -41 168 -57 237 -84
360 -25 113 -38 185 -47 260 -4 39 -13 97 -18 130 -22 128 -36 260 -61 575
-15 198 -12 720 5 954 20 273 58 595 87 736 6 30 14 80 19 110 4 30 13 78 19
105 6 28 18 82 26 120 9 39 22 99 31 135 8 36 19 85 25 110 5 25 19 77 30 115
11 39 26 93 33 120 8 28 21 73 28 100 8 28 22 77 32 110 9 33 23 76 30 95 8
19 28 76 45 125 43 122 76 211 101 270 4 11 18 45 30 75 22 55 40 96 99 225
17 39 41 90 52 115 30 68 130 267 168 335 18 33 44 80 57 105 119 215 355 581
501 775 441 584 956 1094 1502 1486 238 170 579 386 825 520 44 24 172 88 285
141 113 54 221 106 240 117 43 23 159 71 265 109 44 16 118 44 165 61 90 34
397 136 515 171 143 43 634 159 755 179 69 12 148 26 175 31 133 25 623 76
865 90 253 14 803 4 1053 -19z m-3113 -315 c0 -7 -9 -16 -20 -19 -25 -6 -26 8
-2 22 22 13 22 13 22 -3z m-304 -111 c-11 -8 -29 -15 -40 -15 -21 1 -21 1 -2
15 11 8 29 15 40 15 21 -1 21 -1 2 -15z m-876 -289 c0 -6 -79 -46 -90 -46 -23
0 -7 21 20 27 17 3 30 9 30 14 0 5 9 9 20 9 11 0 20 -2 20 -4z m8153 -600 c9
-7 17 -16 17 -20 0 -12 -18 -6 -41 14 -28 22 -6 28 24 6z m383 -290 c7 -8 19
-16 26 -19 7 -2 9 -8 5 -13 -9 -9 -59 18 -65 35 -5 16 17 14 34 -3z m273 -251
c23 -40 16 -46 -15 -12 -31 34 -37 47 -21 47 8 0 24 -16 36 -35z m1124 -1125
c11 -19 38 -57 58 -85 33 -45 79 -126 79 -140 0 -18 -23 3 -61 58 -24 34 -49
68 -56 75 -7 7 -13 18 -13 23 0 6 -11 25 -24 42 -14 18 -29 44 -35 59 -10 26
-9 27 10 15 11 -6 30 -28 42 -47z m261 -425 c11 -19 16 -38 13 -41 -4 -4 -11
5 -16 19 -5 14 -15 28 -20 32 -13 7 -15 25 -3 25 4 0 16 -16 26 -35z m116
-7219 c0 -7 -7 -19 -15 -26 -16 -13 -20 -3 -9 24 8 20 24 21 24 2z m-13173
-221 c8 -22 -6 -33 -17 -15 -13 20 -12 30 0 30 6 0 13 -7 17 -15z m31 -53 c6
-18 -15 -14 -22 4 -4 10 -1 14 6 12 6 -2 14 -10 16 -16z m12890 -179 c-12 -15
-28 -40 -49 -80 -7 -13 -16 -23 -21 -23 -13 0 -9 27 7 40 8 7 15 18 15 26 0 7
6 17 13 21 8 4 17 16 20 26 4 10 12 15 17 12 8 -5 7 -12 -2 -22z m-12768 -29
c0 -9 -5 -14 -12 -12 -18 6 -21 28 -4 28 9 0 16 -7 16 -16z m12690 -98 c0 -7
-7 -19 -15 -26 -8 -7 -15 -17 -15 -22 0 -6 -12 -27 -27 -47 -31 -40 -48 -67
-63 -96 -29 -58 -169 -255 -245 -346 -27 -33 -60 -76 -92 -118 -6 -9 -15 -13
-18 -9 -7 6 42 78 70 103 19 18 105 131 105 139 0 5 14 25 30 46 17 21 30 42
30 47 0 5 14 22 30 38 17 16 30 35 30 42 0 8 7 16 15 19 8 4 15 12 15 19 0 8
6 20 13 27 16 18 35 48 46 75 6 11 15 24 20 28 6 3 11 15 11 26 0 10 5 19 10
19 6 0 16 11 22 25 12 27 28 33 28 11z m-12540 -142 c0 -8 -4 -12 -10 -9 -5 3
-10 13 -10 21 0 8 5 12 10 9 6 -3 10 -13 10 -21z m180 -250 c0 -6 7 -17 15
-24 16 -14 20 -30 7 -30 -11 0 -72 85 -72 100 0 7 11 2 25 -11 13 -13 25 -29
25 -35z m134 -186 c6 -4 7 -10 3 -14 -9 -9 -36 25 -36 46 0 10 3 9 11 -5 6
-11 16 -23 22 -27z m11716 -141 c0 -7 -12 -25 -27 -41 -16 -16 -35 -40 -43
-52 -32 -47 -307 -340 -314 -334 -5 6 27 43 140 166 41 45 93 105 117 135 38
50 119 139 125 139 1 0 2 -6 2 -13z m-8627 -2161 c3 4 18 -1 31 -10 14 -9 39
-16 55 -16 16 0 33 -5 36 -11 4 -5 18 -14 31 -19 13 -5 24 -14 24 -19 0 -14
-87 15 -204 68 -37 17 -46 25 -36 31 10 6 22 3 36 -11 11 -10 23 -16 27 -13z
m5592 -35 c7 -12 -31 -24 -47 -15 -8 5 -6 10 8 15 26 10 32 10 39 0z m-1345
-391 c0 -5 -17 -12 -37 -15 -21 -3 -56 -10 -78 -15 -33 -7 -96 -19 -236 -45
-9 -1 -22 1 -29 5 -21 13 79 38 175 44 50 2 108 12 130 20 46 18 75 20 75 6z
m-2326 -70 c15 -5 81 -12 149 -16 108 -6 150 -14 136 -28 -2 -2 -80 2 -174 9
-152 11 -225 24 -225 40 0 9 88 5 114 -5z m1852 -15 c-21 -16 -127 -22 -110
-6 12 12 41 19 89 20 37 0 39 -1 21 -14z m-336 -25 c0 -4 -19 -8 -42 -8 -31 0
-37 2 -23 8 26 10 65 10 65 0z m-1040 -16 c0 -2 -16 -4 -35 -4 -19 0 -35 4
-35 8 0 4 16 6 35 4 19 -2 35 -6 35 -8z m890 0 c-26 -9 -55 -12 -70 -7 -21 6
-17 8 25 13 81 11 93 9 45 -6z m-725 -4 c3 -6 -4 -10 -17 -10 -18 0 -20 2 -8
10 19 12 18 12 25 0z m433 -2 c-5 -15 -110 -24 -136 -12 -15 7 10 12 121 22
11 1 17 -3 15 -10z m-202 -6 c-5 -8 -66 -4 -66 4 0 2 16 4 36 4 19 0 33 -4 30
-8z M11197 13960 c-4 -30 -11 -136 -17 -235 -5 -99 -12 -194 -15 -210 -11 -56
7 -66 135 -70 l115 -4 -105 12 c-58 7 -110 15 -116 19 -13 9 -10 161 7 358 12
133 9 232 -4 130z M11289 13984 c-13 -236 -19 -341 -25 -391 l-7 -63 84 2 84
2 -72 3 c-63 3 -73 6 -73 22 0 10 5 109 10 221 6 111 8 205 5 208 -3 3 -5 1
-6 -4z M10262 13963 c-30 -15 -92 -81 -92 -99 0 -4 11 8 25 26 29 39 59 58
125 76 l45 12 -35 1 c-19 0 -50 -7 -68 -16z M12239 13963 c6 -12 11 -39 11
-60 0 -21 10 -69 21 -108 33 -116 49 -206 49 -282 0 -40 4 -73 8 -73 15 0 41
35 54 71 6 19 21 48 33 64 26 35 43 65 28 50 -20 -22 -63 -84 -63 -93 0 -5 -9
-17 -20 -27 -20 -18 -20 -17 -20 11 0 65 -83 441 -101 458 -9 8 -9 6 0 -11z
M10117 13952 c-9 -10 -29 -44 -44 -77 -24 -51 -28 -73 -28 -145 0 -77 3 -92
35 -154 53 -107 149 -166 270 -166 87 0 155 25 210 76 45 42 90 117 90 146 -1
18 -29 -34 -30 -54 0 -9 -19 -37 -42 -63 -51 -55 -148 -95 -231 -95 -58 0
-132 30 -183 73 -73 62 -121 181 -112 275 5 48 48 153 76 185 8 9 13 17 10 17
-3 0 -12 -8 -21 -18z M12110 13943 c0 -16 -9 -72 -21 -124 -28 -126 -32 -154
-13 -94 9 28 23 62 30 77 14 27 22 154 10 165 -3 4 -6 -7 -6 -24z M10479
13915 c21 -19 44 -49 51 -65 7 -17 14 -29 16 -27 11 10 -30 79 -59 101 -49 37
-54 32 -8 -9z M9356 13855 c2 -26 30 -140 49 -202 6 -19 2 -23 -26 -32 l-34
-9 36 -1 c56 -1 60 12 28 112 -15 49 -32 94 -38 100 -5 7 -11 23 -14 37 -3 16
-3 15 -1 -5z M10151 13836 c-16 -19 -17 -132 -2 -170 15 -39 23 -28 11 15 -13
44 -13 101 0 135 12 31 8 41 -9 20z M12167 13835 c-12 -11 -17 -33 -17 -68 0
-52 -19 -157 -46 -253 -8 -28 -14 -70 -14 -93 0 -47 -17 -60 -56 -43 -26 12
-32 40 -12 60 7 7 16 43 20 80 4 37 10 87 12 112 5 44 5 44 -5 10 -13 -44 -38
-162 -45 -217 -6 -35 -3 -43 15 -53 28 -14 62 -10 71 10 5 8 18 60 30 115 13
55 29 125 36 155 8 30 14 69 14 87 0 18 4 33 10 33 11 0 12 -3 40 -160 11 -63
25 -133 30 -155 5 -22 12 -54 15 -71 3 -18 15 -40 26 -50 29 -26 55 -7 127 99
106 155 152 227 144 227 -4 0 -34 -41 -66 -90 -33 -50 -79 -113 -103 -141 -24
-28 -43 -55 -43 -61 0 -11 -29 -37 -42 -38 -10 0 -28 69 -28 108 0 18 -5 42
-11 54 -17 31 -49 204 -49 263 0 36 -6 60 -18 75 -17 21 -19 21 -35 5z M9471
13793 c-1 -29 27 -119 34 -111 2 2 -5 35 -15 73 -14 52 -19 62 -19 38z M12536
13763 l-36 -58 34 38 c28 31 53 77 41 77 -1 0 -19 -26 -39 -57z M10555 13723
c0 -75 -3 -94 -23 -125 -22 -35 -106 -88 -141 -88 -8 0 -12 -3 -8 -6 3 -4 29
2 58 12 98 36 151 135 129 242 -7 29 -13 52 -14 52 -1 0 -2 -39 -1 -87z M8970
13785 c-10 -12 -10 -24 -2 -53 6 -20 13 -46 15 -57 3 -11 23 -83 45 -160 22
-77 50 -180 63 -230 12 -49 28 -93 33 -97 11 -8 66 -1 78 11 4 3 -11 6 -34 6
-40 0 -41 1 -54 45 -8 25 -14 58 -14 74 0 27 -33 143 -79 286 -32 95 -44 149
-38 170 6 24 4 25 -13 5z M12715 13763 c-4 -10 -13 -49 -20 -88 -18 -90 -33
-161 -55 -260 -9 -44 -15 -84 -12 -89 7 -12 31 96 77 343 8 40 17 82 20 92 8
24 0 25 -10 2z M12608 13743 c-17 -20 -38 -58 -38 -69 0 -3 7 0 16 7 14 12 15
7 9 -46 -4 -33 -12 -70 -16 -83 -5 -13 -9 -31 -8 -40 1 -23 27 48 28 76 1 13
11 52 23 87 16 45 20 67 12 75 -7 7 -15 5 -26 -7z M10653 13685 c0 -22 2 -30
4 -17 2 12 2 30 0 40 -3 9 -5 -1 -4 -23z M9096 13625 c8 -65 21 -89 42 -80 9
4 33 12 52 17 49 14 63 30 20 22 -19 -4 -43 -11 -53 -16 -22 -11 -37 -2 -37
21 0 10 -7 34 -15 52 l-16 34 7 -50z M9510 13648 c0 -9 6 -38 14 -64 19 -68
38 -143 44 -179 2 -16 11 -39 20 -50 l14 -20 -7 20 c-4 11 -12 43 -17 70 -11
56 -57 228 -64 234 -2 2 -4 -3 -4 -11z M9405 13551 c-16 -14 -145 -51 -202
-58 -74 -8 -80 -20 -52 -95 26 -70 39 -63 15 8 -17 50 -14 64 12 64 9 0 69 16
132 35 63 19 118 31 123 26 5 -5 21 -57 37 -116 16 -58 31 -110 35 -113 10
-10 -1 85 -15 138 -7 25 -17 62 -22 83 -7 29 -13 37 -31 37 -13 0 -27 -4 -32
-9z M12552 13425 c-8 -38 -16 -79 -18 -90 -3 -11 5 -3 16 18 15 28 20 52 18
90 l-3 52 -13 -70z M8165 13460 l-20 -9 20 1 c11 0 31 4 45 8 l25 8 -25 0
c-14 0 -34 -3 -45 -8z M13963 13430 c14 -11 29 -20 34 -20 11 1 -37 40 -49 40
-6 0 1 -9 15 -20z M8070 13425 c-14 -8 -20 -14 -14 -15 5 0 19 7 30 15 24 18
16 19 -16 0z M8000 13395 c-14 -8 -20 -14 -14 -15 5 0 19 7 30 15 24 18 16 19
-16 0z M14020 13405 c0 -6 87 -45 98 -45 9 1 -80 49 -90 50 -5 0 -8 -2 -8 -5z
M8095 13354 c-44 -20 -84 -40 -88 -44 -5 -5 32 -90 82 -191 50 -100 91 -195
91 -210 0 -39 30 -43 72 -10 18 15 52 35 75 45 48 21 97 69 112 109 39 102
-37 270 -144 318 -60 28 -109 23 -200 -17z m177 6 c48 -14 111 -85 139 -159
18 -49 20 -62 10 -105 -17 -72 -52 -112 -134 -152 -73 -35 -97 -37 -97 -8 0 9
-7 28 -15 42 -30 56 -145 306 -145 317 0 17 89 58 145 65 28 4 52 8 55 9 3 0
22 -4 42 -9z M8442 13365 c31 -37 78 -153 78 -192 -1 -127 -106 -293 -187
-293 -33 0 -64 -15 -116 -54 -67 -51 -84 -47 -77 18 1 10 -15 44 -34 76 -20
32 -36 61 -36 66 0 4 -22 55 -49 113 -26 58 -52 117 -56 131 -4 14 -21 39 -37
57 -20 20 -28 38 -24 48 3 9 2 13 -4 10 -16 -10 -12 -40 9 -66 10 -13 39 -71
64 -129 104 -237 166 -365 179 -368 8 -1 66 22 131 52 189 89 252 165 252 306
0 65 -5 85 -32 141 -18 36 -43 74 -55 85 -23 19 -23 19 -6 -1z M13785 13177
c-49 -100 -100 -199 -112 -219 -38 -63 -35 -67 97 -136 65 -34 126 -62 133
-62 8 0 27 -10 43 -22 22 -17 25 -18 14 -4 -8 10 -48 35 -90 55 -41 20 -95 51
-119 69 -24 17 -52 32 -62 32 -29 0 -32 18 -6 52 13 18 32 54 41 80 10 27 27
65 39 87 12 21 40 72 63 112 33 60 62 139 51 139 -1 0 -42 -82 -92 -183z
M13956 13342 c-2 -4 -7 -24 -11 -44 -4 -20 -20 -48 -36 -64 -38 -36 -38 -68 0
-84 17 -7 35 -10 42 -8 7 2 -2 10 -19 17 -32 13 -41 34 -22 46 5 3 21 30 35
59 14 29 27 55 30 58 6 5 212 -96 230 -113 5 -5 18 -8 30 -8 19 1 19 2 0 6
-11 3 -33 16 -50 28 -16 13 -52 33 -80 45 -27 13 -66 33 -85 46 -36 25 -55 30
-64 16z M14160 13336 c8 -8 37 -23 65 -34 35 -14 52 -27 56 -43 7 -24 7 -24 8
2 1 23 -7 30 -71 58 -40 18 -66 25 -58 17z M9181 13304 c0 -17 6 -37 14 -44
16 -13 21 0 6 16 -5 5 -11 20 -14 34 -4 22 -4 21 -6 -6z M13832 13093 c-5 -10
-14 -37 -22 -60 -7 -24 -21 -50 -32 -59 -25 -24 -23 -49 7 -62 39 -18 53 -14
25 7 l-24 19 21 44 c12 24 26 55 32 71 6 15 17 27 26 27 18 0 127 -53 168 -82
15 -11 27 -17 27 -15 0 6 -98 77 -106 77 -3 0 -22 11 -42 25 -43 29 -68 32
-80 8z M14674 12861 c-40 -53 -98 -134 -129 -181 -32 -47 -70 -101 -85 -120
-43 -56 -47 -66 -20 -47 12 8 41 44 64 79 46 70 129 189 158 228 34 46 90 132
86 135 -2 1 -35 -41 -74 -94z M7193 12905 c-18 -8 -33 -17 -33 -20 0 -3 6 -3
13 2 6 4 39 13 72 19 55 11 56 12 20 13 -22 0 -55 -6 -72 -14z M7325 12898
c56 -32 102 -124 91 -180 -4 -18 -21 -49 -37 -68 l-31 -35 7 45 c8 51 8 47 6
78 -1 27 -63 90 -98 98 -17 5 -40 -1 -67 -14 -101 -53 -160 -88 -163 -99 -3
-7 6 -20 18 -30 63 -52 135 -183 100 -183 -14 0 -131 143 -138 168 -3 12 -13
22 -23 22 -10 0 -23 7 -30 15 -12 15 -6 35 12 35 5 0 27 14 48 30 21 17 42 30
47 30 5 0 22 14 39 31 21 23 2 13 -73 -36 -57 -38 -103 -71 -103 -76 0 -4 15
-25 33 -47 17 -23 43 -57 57 -77 14 -19 61 -81 104 -138 43 -56 97 -130 119
-164 29 -46 46 -63 61 -62 17 1 18 2 3 6 -9 2 -29 29 -43 59 -14 29 -43 80
-64 112 l-39 59 49 51 c47 49 106 89 117 78 3 -2 -4 -15 -16 -27 -12 -13 -21
-27 -21 -31 0 -5 -16 -16 -35 -24 -50 -21 -53 -38 -12 -81 79 -84 117 -131
117 -143 0 -8 -8 -23 -17 -34 -18 -21 -18 -21 5 -2 12 11 22 25 22 32 0 7 -27
50 -60 96 -33 46 -60 88 -60 93 0 11 64 55 80 55 14 0 176 -65 212 -85 14 -8
34 -15 45 -14 16 0 16 1 -2 9 -11 4 -28 17 -37 29 -9 11 -43 28 -75 37 -72 21
-93 34 -93 58 0 16 5 18 38 12 20 -4 55 -9 77 -12 l40 -4 -40 19 c-22 11 -48
22 -59 25 -15 4 -17 11 -12 33 19 81 18 112 -3 157 -23 46 -82 106 -104 106
-7 0 -3 -6 8 -12z m-26 -109 c17 -17 34 -41 37 -54 8 -33 -30 -101 -68 -121
-17 -9 -40 -26 -50 -38 l-17 -21 -26 30 c-52 61 -108 136 -104 140 15 15 167
95 181 95 9 0 30 -14 47 -31z M14779 12849 c-51 -62 -82 -105 -146 -199 -31
-47 -71 -98 -87 -114 l-31 -28 28 -22 c15 -11 46 -31 69 -44 l43 -23 -30 23
c-72 56 -81 67 -65 81 8 6 40 48 70 92 30 44 77 112 105 150 62 84 89 125 83
125 -3 0 -20 -19 -39 -41z M7545 12562 c6 -6 24 -13 40 -17 21 -4 25 -3 15 3
-24 15 -67 26 -55 14z M14412 12481 c3 -8 29 -31 60 -50 31 -20 98 -64 149
-98 50 -35 94 -63 96 -63 3 0 -15 16 -39 35 -23 19 -50 41 -58 48 -30 27 -158
107 -170 107 -7 0 -19 8 -27 18 -10 11 -13 12 -11 3z M6395 12241 c-84 -22
-166 -91 -203 -171 -35 -73 -37 -181 -4 -254 42 -94 118 -161 222 -196 99 -34
195 -16 279 50 185 146 139 425 -89 540 -64 32 -151 46 -205 31z m131 -27 c88
-20 110 -32 166 -91 63 -68 91 -132 91 -213 1 -145 -106 -257 -267 -281 -52
-7 -65 -6 -86 10 -14 10 -42 24 -62 31 -43 16 -144 109 -158 144 -5 13 -12 63
-16 111 -6 81 -5 89 21 140 30 59 98 129 148 150 42 19 81 18 163 -1z M6421
12170 c-99 -21 -173 -103 -187 -207 -6 -45 -3 -58 25 -110 64 -120 231 -208
321 -169 44 19 100 70 128 117 25 42 29 116 9 157 -8 15 -23 45 -33 67 -21 44
-48 73 -110 115 -47 33 -92 42 -153 30z m104 -43 c121 -47 200 -177 174 -283
-12 -46 -67 -106 -115 -124 -43 -17 -125 -12 -170 11 -114 55 -178 169 -148
268 14 49 70 112 114 130 34 13 108 12 145 -2z M15925 11853 c-49 -19 -112
-42 -140 -50 -27 -9 -45 -18 -40 -20 6 -2 38 6 70 18 33 11 89 30 125 41 36
11 72 27 80 34 20 20 7 16 -95 -23z M16104 11857 c21 -34 15 -54 -19 -67 -14
-5 -25 -14 -25 -20 0 -5 -5 -10 -12 -10 -9 0 -9 3 0 12 41 41 -33 53 -86 14
-18 -13 -58 -31 -90 -41 -100 -30 -142 -47 -142 -59 0 -7 21 -33 48 -59 56
-55 90 -113 75 -128 -5 -5 -16 -7 -24 -4 -24 10 -129 146 -129 166 0 29 -56
25 -102 -7 -49 -34 -49 -48 -1 -23 21 10 44 19 53 19 25 0 170 -172 170 -202
0 -18 -28 -75 -41 -83 -28 -18 15 -115 50 -115 10 0 37 43 73 118 80 162 207
405 218 416 18 18 11 62 -12 82 l-22 19 18 -28z m-124 -111 c0 -8 -4 -17 -9
-21 -6 -3 -29 -41 -52 -85 -24 -44 -46 -80 -50 -80 -4 0 -13 10 -22 23 -8 12
-31 39 -52 60 -20 21 -35 41 -32 44 7 6 186 69 205 72 6 0 12 -5 12 -13z m50
-43 c0 -16 -9 -44 -19 -63 -11 -19 -24 -45 -30 -57 -6 -13 -15 -23 -21 -23 -5
0 -10 -11 -10 -24 0 -13 -7 -29 -15 -36 -8 -7 -15 -18 -15 -25 0 -7 -7 -18
-15 -25 -8 -7 -15 -20 -15 -30 0 -10 -11 -42 -23 -71 -13 -30 -27 -63 -31 -74
-7 -19 -9 -18 -32 10 -13 17 -24 34 -24 38 0 4 22 36 48 70 53 68 82 121 82
148 0 10 5 21 10 24 6 3 10 13 10 22 0 38 68 143 92 143 4 0 8 -12 8 -27z
M15627 11745 c-31 -13 -72 -27 -90 -30 -40 -9 -77 -32 -77 -48 0 -7 7 -4 15 7
8 10 35 22 61 27 44 8 154 54 154 64 0 3 -1 5 -2 4 -2 0 -29 -11 -61 -24z
M5740 11420 c6 -11 30 -32 53 -46 23 -15 65 -41 92 -59 143 -93 233 -151 259
-164 39 -21 43 -38 12 -52 -22 -11 -28 -9 -52 20 -17 20 -65 51 -123 79 -104
49 -161 84 -201 121 -14 13 -46 34 -72 46 -26 12 -54 28 -63 35 -10 8 -15 9
-15 2 0 -6 52 -49 116 -94 119 -85 128 -91 179 -124 l30 -19 -75 -6 c-41 -4
-154 -7 -252 -8 l-176 -1 -26 -31 c-14 -17 -26 -38 -26 -47 1 -9 22 -30 48
-46 77 -48 124 -78 177 -114 28 -18 94 -63 147 -98 54 -36 100 -69 103 -74 10
-16 52 -11 66 8 11 14 11 15 -1 5 -18 -17 -47 -16 -57 1 -10 16 -113 101 -166
136 -20 14 -39 32 -42 40 -3 8 -18 24 -35 35 -16 11 -32 25 -34 31 -7 18 34 4
70 -23 17 -12 34 -23 37 -23 3 0 23 -12 44 -26 21 -14 47 -30 58 -35 21 -9 30
-15 103 -62 79 -50 32 -8 -56 51 -91 60 -252 172 -252 175 0 1 118 1 262 -1
l263 -3 28 29 c20 20 27 36 23 49 -4 10 -41 40 -84 67 -42 28 -143 94 -225
148 -85 56 -143 89 -137 78z m-226 -298 c5 -9 -72 -47 -79 -40 -3 2 2 14 11
26 15 22 58 30 68 14z m315 -7 c14 -14 -23 -20 -127 -20 -122 0 -158 7 -146
26 5 9 43 10 138 5 71 -4 132 -9 135 -11z M16395 11088 c-99 -60 -208 -123
-242 -140 -72 -34 -86 -58 -53 -93 12 -13 39 -55 59 -94 78 -150 134 -200 224
-201 73 0 157 77 157 146 0 40 8 47 34 29 39 -28 85 -17 139 34 84 77 77 143
-29 316 -13 22 -29 51 -34 64 -6 13 -13 22 -15 19 -7 -7 16 -66 49 -128 61
-114 66 -125 66 -146 0 -59 -36 -103 -104 -125 -34 -12 -42 -11 -80 9 -22 12
-48 22 -57 22 -34 0 -97 102 -109 178 0 1 8 -2 18 -7 10 -5 31 -34 47 -63 44
-81 73 -108 117 -108 52 0 108 49 107 94 0 36 -90 210 -111 214 -7 1 -27 -10
-43 -26 -17 -15 -49 -34 -73 -41 -24 -7 -51 -21 -60 -32 -9 -10 -24 -19 -33
-19 -16 0 -89 -67 -89 -82 0 -4 -15 -8 -33 -8 -18 0 -42 -6 -53 -14 -19 -14
-19 -15 3 -43 13 -15 34 -51 48 -79 43 -87 91 -124 160 -124 32 0 36 4 63 60
29 62 42 67 42 19 0 -29 -29 -89 -44 -89 -5 0 -14 -7 -21 -16 -10 -14 -23 -16
-77 -10 l-66 7 -61 74 c-33 40 -71 96 -86 124 -14 28 -29 51 -34 51 -13 0 -21
27 -15 45 4 8 13 15 20 15 8 0 50 20 94 45 44 25 82 45 85 45 3 0 36 19 73 43
37 23 84 52 105 62 31 16 113 87 96 84 -2 0 -85 -50 -184 -111z m212 -70 c74
-115 77 -144 20 -178 -58 -36 -76 -24 -141 88 -37 64 -38 82 -8 82 9 0 31 11
47 25 17 13 36 24 42 25 7 0 25 -19 40 -42z m-195 -158 c39 -77 46 -123 25
-151 -15 -19 -50 -39 -71 -39 -23 0 -79 61 -116 124 -33 59 -34 86 -2 86 10 0
36 13 58 30 21 16 45 29 53 27 8 -1 32 -36 53 -77z M5011 10007 c-123 -268
-259 -684 -363 -1117 -60 -250 -65 -277 -93 -475 -8 -60 -19 -135 -25 -165
-14 -87 -42 -420 -37 -441 3 -10 0 -22 -6 -26 -10 -6 -158 -5 -164 1 -1 1 -5
87 -8 190 -3 104 -10 197 -16 207 -11 22 -49 34 -79 24 -46 -15 -53 -45 -58
-241 l-5 -184 -63 0 c-102 0 -105 -7 -101 -300 2 -173 4 -188 26 -235 60 -124
168 -209 302 -239 26 -6 27 -8 34 -107 8 -113 19 -149 46 -149 21 0 25 -14 34
-120 3 -41 10 -100 15 -130 5 -30 16 -104 25 -165 30 -197 110 -564 150 -685
8 -25 31 -97 50 -160 19 -63 50 -155 68 -205 48 -125 96 -246 106 -270 5 -11
33 -74 61 -140 94 -217 287 -585 354 -674 14 -19 26 -39 26 -43 0 -5 19 -39
43 -76 23 -36 47 -74 52 -83 55 -89 243 -344 313 -424 9 -11 34 -42 55 -69 20
-27 37 -45 37 -39 0 6 -34 52 -75 104 -41 51 -112 150 -156 219 -45 69 -103
157 -130 195 -51 72 -115 180 -159 266 -14 27 -31 57 -38 66 -37 51 -262 487
-262 508 0 2 -11 28 -24 57 -85 188 -109 258 -86 258 6 0 13 -8 17 -17 8 -27
43 -105 59 -135 8 -14 14 -33 14 -42 0 -9 4 -24 9 -34 4 -9 19 -39 32 -67 13
-27 30 -54 37 -58 6 -4 12 -19 12 -32 0 -14 4 -25 10 -25 5 0 13 -12 16 -26 4
-14 17 -45 30 -67 13 -23 39 -76 59 -117 20 -41 40 -82 45 -90 5 -8 19 -35 32
-60 12 -25 34 -61 49 -80 14 -19 29 -42 32 -50 4 -8 15 -27 25 -42 9 -15 43
-69 75 -120 31 -51 63 -102 70 -113 25 -41 278 -375 283 -375 3 0 -8 17 -23
37 -15 21 -43 58 -61 83 -18 25 -36 50 -40 55 -25 32 -166 241 -219 323 -65
103 -65 103 -133 227 -24 44 -51 94 -61 110 -23 39 -190 374 -222 445 -13 30
-44 100 -67 155 -23 55 -48 114 -55 130 -7 17 -16 45 -19 62 -4 18 -12 35 -17
38 -5 4 -9 15 -9 25 0 11 -6 34 -14 52 -8 18 -29 80 -46 138 -18 58 -36 116
-42 129 -5 14 -13 43 -18 65 -5 23 -18 75 -29 116 -35 126 -75 305 -96 435
-37 220 -46 276 -56 379 -12 126 -9 148 26 164 23 11 25 17 25 79 0 38 3 92 6
121 6 44 10 52 28 52 58 1 200 96 243 163 66 101 66 102 67 354 1 127 -2 235
-7 239 -4 4 -40 10 -80 13 l-72 6 -10 194 c-10 187 -11 194 -35 213 -19 15
-33 18 -64 14 l-39 -7 6 73 c7 90 42 309 69 433 6 28 14 73 18 100 20 134 62
305 120 495 55 181 129 409 139 427 5 10 16 36 24 58 9 22 26 67 38 100 13 33
27 64 31 70 4 5 8 19 8 31 0 12 7 27 15 34 8 7 15 17 15 23 0 17 -40 -35 -40
-52 -1 -9 -14 -41 -30 -71 -17 -30 -30 -61 -30 -69 0 -8 -13 -41 -28 -75 -16
-34 -37 -86 -47 -116 -9 -30 -23 -68 -31 -85 -22 -48 -69 -202 -78 -258 -4
-21 -18 -64 -30 -95 -22 -54 -35 -104 -56 -217 -5 -27 -16 -72 -24 -100 -21
-70 -43 -162 -51 -212 -4 -24 -12 -46 -17 -50 -12 -6 -7 50 12 152 5 28 18
100 28 162 11 62 34 154 51 205 17 51 38 120 47 153 10 33 24 73 32 89 7 16
24 70 37 120 28 106 36 132 65 206 12 30 25 67 30 82 4 14 20 50 34 78 14 28
26 62 26 74 0 12 7 32 16 44 8 12 14 29 12 36 -2 8 -14 -9 -27 -37z m-731
-1849 c0 -12 -5 -17 -12 -14 -7 3 -21 9 -30 12 -21 7 -23 21 -5 27 23 7 47 -5
47 -25z m431 22 c10 -6 19 -17 19 -26 0 -11 -5 -12 -17 -6 -10 5 -23 7 -30 5
-14 -5 -26 13 -18 27 8 13 21 13 46 0z m199 -445 c0 -29 -8 -32 -26 -7 -19 24
-17 32 6 32 15 0 20 -7 20 -25z m-292 -472 c6 -15 12 -32 12 -37 -1 -15 -40
36 -40 52 0 21 14 13 28 -15z m-250 -6 c2 -11 -3 -17 -16 -17 -26 0 -34 11
-20 27 14 17 32 12 36 -10z m181 -948 c6 -18 11 -46 11 -64 0 -18 5 -46 11
-62 5 -17 9 -55 7 -84 l-3 -54 -13 40 c-21 68 -45 255 -32 255 4 0 13 -14 19
-31z m60 -347 c1 -32 -16 -19 -24 18 -8 38 6 65 16 30 4 -14 7 -35 8 -48z m85
-288 c9 -25 7 -64 -4 -64 -5 0 -10 4 -10 9 0 5 -3 23 -6 40 -7 32 9 44 20 15z
m43 -162 c20 -71 27 -129 15 -117 -17 16 -54 154 -45 168 8 13 16 0 30 -51z
m53 -158 c0 -14 6 -38 14 -52 15 -31 46 -124 46 -141 0 -7 -4 -9 -10 -6 -5 3
-10 13 -10 22 0 8 -8 27 -18 41 -21 31 -54 141 -46 153 11 18 24 8 24 -17z
M17012 9928 c33 -90 46 -125 78 -208 144 -372 241 -737 314 -1170 14 -82 46
-323 46 -343 0 -4 -18 -7 -39 -7 -23 0 -48 -8 -62 -18 -21 -18 -23 -29 -32
-208 -5 -104 -10 -190 -12 -192 -1 -1 -30 -4 -64 -5 -98 -4 -96 3 -96 -270 l0
-232 28 -53 c53 -101 148 -178 265 -216 l52 -18 0 -105 c0 -104 0 -105 30
-133 30 -28 30 -29 25 -112 -7 -109 -46 -359 -80 -513 -7 -33 -21 -96 -30
-140 -22 -98 -80 -329 -94 -370 -5 -16 -29 -91 -52 -165 -43 -137 -100 -301
-124 -355 -7 -16 -28 -66 -46 -110 -52 -129 -129 -292 -256 -540 -6 -11 -17
-33 -25 -50 -36 -70 -82 -151 -94 -166 -8 -8 -14 -18 -14 -22 0 -11 -90 -156
-159 -257 -153 -224 -177 -259 -234 -335 -34 -44 -50 -71 -38 -60 58 50 271
346 367 509 16 27 37 60 46 75 10 14 22 37 28 50 6 14 27 47 47 74 20 27 50
76 68 110 40 77 127 242 148 282 25 47 77 164 77 174 0 5 7 14 15 21 8 7 15
20 15 30 0 10 7 23 15 30 8 7 15 9 15 4 -1 -19 -38 -113 -77 -194 -22 -47 -49
-105 -59 -130 -10 -25 -28 -61 -39 -80 -12 -19 -34 -66 -50 -104 -16 -37 -44
-87 -62 -110 -18 -22 -33 -46 -33 -52 0 -6 -8 -22 -19 -35 -10 -13 -33 -51
-51 -84 -18 -33 -46 -80 -63 -105 -66 -97 -176 -259 -227 -335 -30 -44 -67
-96 -82 -115 -39 -48 -43 -53 -52 -70 -16 -31 74 80 201 248 122 163 250 364
403 637 107 190 125 226 200 390 109 242 110 243 140 329 16 45 42 117 58 161
54 146 112 324 112 343 0 10 4 22 9 27 11 11 61 206 125 485 26 114 76 445 76
506 0 60 11 104 25 104 7 0 22 8 34 18 17 15 22 33 28 132 l8 115 47 6 c91 13
198 90 251 182 47 80 57 142 57 359 0 229 4 221 -107 234 l-63 7 0 178 c0 195
-6 221 -53 240 -24 10 -34 10 -56 -2 -44 -25 -50 -52 -53 -239 l-3 -175 -90 0
-90 0 3 60 c2 33 -1 101 -7 150 -5 50 -15 135 -20 190 -22 205 -48 374 -77
502 -8 34 -14 71 -14 81 0 11 -7 42 -15 68 -8 27 -35 132 -60 234 -25 102 -52
205 -60 230 -36 113 -86 260 -105 310 -12 30 -25 66 -30 80 -42 123 -121 313
-127 306 -6 -5 25 -94 39 -112 5 -7 15 -38 24 -70 8 -33 22 -72 30 -88 7 -16
14 -34 14 -40 1 -6 9 -29 20 -51 11 -22 19 -48 20 -58 0 -9 4 -25 10 -35 8
-15 33 -81 69 -187 26 -78 49 -171 81 -330 6 -33 16 -78 22 -100 5 -22 16 -79
24 -127 7 -48 22 -125 31 -170 18 -85 19 -158 2 -158 -5 0 -9 26 -9 58 0 31
-14 109 -31 172 -17 63 -34 135 -39 160 -5 25 -13 58 -19 73 -6 16 -11 40 -11
55 0 15 -22 94 -49 177 -27 82 -57 177 -66 210 -10 33 -20 65 -24 70 -3 6 -11
28 -18 50 -22 77 -80 240 -103 290 -13 28 -27 59 -31 70 -19 48 -70 155 -73
155 -2 0 10 -37 26 -82z m392 -1744 c26 -10 18 -41 -14 -58 -28 -13 -31 -13
-40 3 -6 13 -5 24 6 39 16 23 23 26 48 16z m474 -10 c12 -8 22 -24 22 -35 0
-23 -15 -25 -24 -4 -6 17 -42 20 -51 5 -3 -5 -11 -10 -16 -10 -6 0 -1 14 11
30 25 35 28 35 58 14z m-634 -420 c25 -10 19 -20 -26 -43 -45 -22 -58 -20 -58
9 0 31 45 49 84 34z m436 -4 c12 -8 9 -10 -12 -10 -16 0 -28 5 -28 10 0 13 20
13 40 0z m-170 -494 c0 -16 -18 -31 -27 -22 -8 8 5 36 17 36 5 0 10 -6 10 -14z
m16 -1121 c1 -8 -2 -17 -7 -21 -5 -3 -9 7 -9 22 0 27 12 26 16 -1z m0 -62
c-10 -10 -19 5 -10 18 6 11 8 11 12 0 2 -7 1 -15 -2 -18z m-65 -233 c-9 -23
-10 -21 -10 16 -1 22 2 44 7 48 11 12 14 -37 3 -64z m-51 -205 c0 -27 -15 -41
-25 -25 -10 16 4 62 15 55 6 -3 10 -17 10 -30z m-30 -84 c0 -11 -4 -23 -10
-26 -6 -4 -10 5 -10 19 0 14 5 26 10 26 6 0 10 -9 10 -19z m-34 -108 c-11 -11
-17 4 -9 23 7 18 8 18 11 1 2 -10 1 -21 -2 -24z m-82 -261 c-21 -54 -43 -104
-51 -113 -7 -8 -13 -22 -13 -30 0 -8 -6 -23 -14 -34 -7 -11 -16 -32 -20 -47
-3 -16 -11 -28 -16 -28 -15 0 -12 46 4 59 8 7 18 26 21 42 4 16 11 29 16 29 5
0 9 7 9 16 0 17 27 107 40 134 4 9 11 30 15 48 3 18 14 40 23 49 32 32 26 -23
-14 -125z M14753 9474 c-37 -36 -69 -61 -71 -55 -2 7 -18 -2 -38 -21 -18 -18
-38 -37 -44 -43 -37 -36 -88 -94 -92 -105 -2 -7 -24 -16 -49 -19 -36 -5 -45
-10 -47 -29 -2 -12 -8 -20 -13 -17 -5 4 -16 -1 -25 -9 -8 -9 -23 -16 -33 -16
-10 0 -26 -9 -35 -19 -10 -11 -28 -22 -42 -25 -13 -4 -24 -11 -24 -17 0 -6 -4
-8 -9 -4 -10 5 -33 -27 -30 -42 4 -24 -4 -31 -36 -31 -33 0 -95 -34 -95 -52 0
-16 -82 -68 -101 -65 -11 2 -19 -2 -19 -9 0 -7 -11 -18 -25 -24 -14 -7 -28
-19 -31 -27 -4 -8 -16 -15 -28 -15 -12 0 -27 -5 -33 -11 -6 -6 -19 -9 -29 -7
-10 2 -28 -7 -41 -19 -12 -13 -29 -23 -38 -23 -8 0 -15 -4 -15 -9 0 -5 -12
-14 -27 -19 -41 -15 -97 -72 -133 -135 -54 -97 -85 -101 -44 -7 13 30 23 61
24 68 0 8 6 28 14 45 39 92 49 118 44 122 -2 3 -20 -30 -38 -73 -18 -42 -60
-133 -93 -202 -33 -69 -79 -165 -102 -215 -23 -49 -75 -157 -115 -240 -40 -82
-105 -222 -145 -310 -40 -88 -85 -186 -100 -218 -31 -70 -28 -92 11 -77 33 13
694 13 694 0 0 -4 -13 -37 -28 -72 -16 -34 -50 -121 -76 -193 -26 -71 -51
-139 -56 -150 -5 -11 -26 -63 -46 -115 -48 -125 -178 -456 -214 -545 -15 -38
-43 -113 -60 -165 -18 -52 -43 -117 -56 -144 -25 -53 -26 -77 -1 -29 8 15 27
39 41 52 l26 24 0 -22 c0 -12 -7 -36 -16 -52 -45 -88 31 11 171 222 11 16 70
99 130 184 61 85 126 177 145 205 19 28 46 66 60 85 14 18 61 85 105 147 43
62 106 149 138 192 32 44 97 136 143 205 46 69 100 146 119 171 30 40 137 195
279 405 26 39 57 78 69 87 21 16 19 16 -25 0 -44 -15 -48 -15 -66 1 -16 15
-45 17 -250 17 -213 0 -274 7 -206 24 14 4 127 6 250 5 124 -1 227 1 231 5 3
3 -118 6 -270 6 -251 0 -309 5 -278 25 6 3 36 52 67 108 32 56 130 224 219
372 90 149 171 284 181 301 31 51 148 253 194 334 24 41 67 116 97 167 29 50
53 96 53 102 0 6 14 26 31 46 50 57 24 40 -48 -31z m-1313 -1051 c0 -5 -5 -15
-10 -23 -8 -12 -10 -11 -10 8 0 12 5 22 10 22 6 0 10 -3 10 -7z m3 -850 c25
-15 -19 -23 -128 -23 -124 0 -159 9 -108 29 26 10 218 5 236 -6z M13751 9193
c-10 -26 -10 -27 4 -9 8 11 15 23 15 28 0 15 -7 8 -19 -19z M13707 9104 c-14
-32 -25 -60 -23 -62 6 -6 57 100 54 110 -2 5 -16 -16 -31 -48z M13631 8943
c-10 -26 -10 -27 4 -9 8 11 15 23 15 28 0 15 -7 8 -19 -19z M13602 8880 c-18
-29 -15 -38 4 -12 9 13 14 25 12 27 -2 2 -9 -5 -16 -15z M8817 5066 c-20 -21
-25 -700 -5 -713 18 -11 429 -13 451 -2 12 7 17 22 17 54 l0 45 -72 0 c-40 1
-120 2 -178 3 l-105 2 0 105 0 105 135 2 c182 4 182 4 178 56 l-3 42 -155 5
-155 5 -3 35 c-2 19 -1 62 3 95 l6 60 161 2 c94 2 165 7 170 13 4 5 6 8 2 6
-3 -2 -30 5 -59 15 -40 14 -82 19 -160 19 -87 0 -105 3 -105 15 0 16 33 21
100 16 44 -3 163 9 156 16 -3 3 -86 7 -185 9 -147 3 -182 1 -194 -10z m46 -31
c-4 -15 -36 -12 -41 3 -3 9 3 13 19 10 13 -1 23 -7 22 -13z m365 -308 c4 -36
-12 -40 -78 -18 l-54 18 44 16 c63 22 84 18 88 -16z m-218 4 c0 -6 -5 -13 -10
-16 -15 -9 -43 3 -35 15 8 13 45 13 45 1z m258 -316 c1 -11 -2 -27 -7 -34 -8
-13 -14 -13 -43 2 -18 9 -59 19 -90 22 -32 4 -58 10 -58 15 0 5 35 11 78 13
113 5 117 4 120 -18z M9950 5073 c-8 -3 -18 -11 -22 -16 -3 -6 -7 -164 -7
-352 -1 -271 1 -344 11 -353 18 -15 427 -8 439 7 6 8 5 8 -3 1 -7 -6 -23 -4
-45 5 -34 15 -178 37 -216 34 -38 -3 -57 1 -57 10 0 12 61 21 194 31 l101 7
-152 2 -153 1 -1 268 c-1 147 -1 283 0 303 2 20 -1 39 -6 42 -16 9 -68 16 -83
10z m73 -28 c3 -7 -2 -24 -11 -35 -16 -19 -21 -20 -45 -9 -18 8 -27 20 -27 36
0 20 5 23 39 23 25 0 41 -5 44 -15z M11880 5066 c-14 -18 -100 -216 -100 -233
0 -7 -4 -21 -10 -31 -5 -9 -26 -60 -45 -112 -20 -52 -42 -111 -50 -130 -47
-120 -72 -197 -68 -207 6 -14 80 -18 100 -5 6 4 19 27 28 52 33 88 47 111 68
119 26 9 223 7 253 -2 22 -8 36 -32 61 -107 22 -64 29 -70 87 -70 43 1 48 2
31 12 -28 16 -36 31 -24 43 7 7 17 2 31 -15 l21 -25 -8 25 c-4 14 -11 30 -15
35 -4 6 -11 25 -15 43 -4 18 -13 45 -21 60 -8 15 -14 33 -14 40 0 7 -4 20 -10
30 -16 29 -50 110 -50 120 0 5 -13 40 -29 78 -50 119 -89 218 -96 241 -3 11
-12 26 -19 32 -20 17 -93 21 -106 7z m76 -224 c9 -26 21 -51 26 -56 4 -6 8
-17 8 -25 1 -9 9 -34 20 -56 35 -73 33 -75 -74 -75 -52 0 -97 4 -100 9 -3 5 6
40 20 77 14 38 32 89 40 114 9 25 17 51 20 58 7 22 21 5 40 -46z m28 -252 c14
-14 3 -21 -43 -27 -49 -7 -94 3 -88 20 8 25 108 30 131 7z m-334 -204 c0 -15
-14 -35 -21 -30 -15 9 -10 34 6 34 8 0 15 -2 15 -4z M12972 5072 c-78 -2 -114
-6 -117 -15 -2 -7 -6 -164 -9 -350 -4 -296 -2 -339 11 -353 14 -13 42 -15 197
-11 100 3 190 9 201 13 74 28 135 122 135 207 0 57 -24 103 -72 141 l-32 24
32 36 c27 31 52 89 52 121 0 29 -24 88 -47 115 -54 65 -117 78 -351 72z m268
-39 c39 -24 80 -65 80 -80 0 -20 -18 -16 -30 7 -6 11 -15 20 -21 20 -6 0 -16
6 -24 13 -9 10 -50 14 -135 16 -68 1 -132 6 -142 12 -14 8 -28 7 -48 -1 -32
-13 -50 -7 -50 17 0 12 8 14 43 10 23 -4 60 -2 82 3 58 13 215 2 245 -17z
m-145 -73 c116 -13 121 -15 135 -49 14 -34 -1 -101 -26 -122 -11 -9 -49 -13
-123 -14 l-106 0 -3 84 c-2 46 -1 90 2 98 6 16 7 16 121 3z m54 -226 c18 -18
-67 -31 -116 -18 -58 16 10 46 72 32 22 -5 42 -11 44 -14z m60 -82 c66 -33 77
-142 20 -183 -26 -18 -41 -20 -141 -17 l-113 4 -3 94 c-1 51 -1 99 2 107 8 21
192 18 235 -5z m-129 -232 c0 -5 -17 -10 -37 -10 -28 0 -34 3 -23 10 20 13 60
13 60 0z M6741 4761 c-438 -5 -555 -9 -557 -19 -1 -7 0 -8 3 -2 7 15 59 12 72
-4 9 -11 6 -18 -13 -34 l-26 -20 41 -6 c22 -3 424 -6 893 -6 887 1 899 1 883
41 -4 11 -6 10 -6 -3 -1 -21 -35 -32 -59 -19 -27 15 -568 30 -1081 31 -68 0
-121 3 -117 8 9 8 122 10 739 15 235 2 430 7 434 10 3 4 -119 7 -273 7 -153 0
-301 2 -329 3 -27 2 -299 1 -604 -2z m-183 -36 c3 -3 -39 -5 -94 -5 -54 0 -94
4 -87 8 12 8 172 6 181 -3z M14445 4760 c-143 -3 -235 -7 -205 -8 135 -6 1651
-4 1657 1 3 4 -250 7 -564 7 -314 0 -583 1 -599 3 -16 2 -146 1 -289 -3z
M15928 4750 c16 -19 15 -45 -2 -59 -11 -9 -27 -9 -68 2 -43 11 -194 13 -833
10 -437 -3 -804 -8 -835 -14 -50 -9 -56 -8 -72 12 -14 16 -18 18 -18 5 0 -8 9
-20 19 -26 30 -16 1803 -14 1819 2 18 18 15 54 -5 69 -15 11 -16 11 -5 -1z
M10382 4405 c0 -16 2 -22 5 -12 2 9 2 23 0 30 -3 6 -5 -1 -5 -18z M16305 3471
c-6 -5 -19 -11 -30 -14 -19 -4 -19 -5 1 -6 12 0 27 6 34 14 14 16 10 20 -5 6z
M16210 2287 c-215 -210 -570 -502 -802 -661 -28 -19 -38 -31 -29 -34 8 -3 18
3 23 12 5 9 15 16 22 16 8 0 16 7 20 15 3 8 10 15 16 15 14 0 110 72 110 82 0
4 7 8 15 8 7 0 18 6 22 13 4 7 22 21 38 31 17 10 37 27 46 36 9 9 47 39 83 65
36 27 66 52 66 57 0 4 7 8 15 8 8 0 29 15 48 33 127 122 185 177 190 177 4 0
21 15 40 33 18 17 44 42 58 53 13 12 53 51 88 88 107 109 55 74 -69 -47z
M7901 2212 c53 -48 80 -99 59 -112 -20 -13 -33 -3 -53 41 -18 37 -64 69 -102
69 -23 0 -64 -47 -59 -68 5 -17 54 -84 98 -134 9 -10 16 -36 16 -57 0 -32 -6
-44 -35 -70 -42 -37 -53 -37 -131 -10 -67 23 -103 61 -115 118 -7 35 -7 35 -8
5 -2 -45 50 -106 117 -139 49 -24 59 -26 93 -16 54 16 89 62 89 116 0 36 -7
51 -44 97 -58 70 -70 101 -48 121 34 31 113 -6 126 -58 11 -44 77 -40 76 4 -1
26 -52 91 -90 114 -31 19 -30 16 11 -21z M14234 2205 c-23 -23 -25 -31 -19
-83 3 -31 10 -77 15 -102 16 -84 19 -120 9 -120 -6 0 -36 19 -67 43 -77 57
-106 73 -100 55 3 -7 13 -15 23 -17 10 -1 23 -7 29 -12 70 -58 96 -84 96 -95
0 -27 -35 -14 -80 30 -54 52 -104 79 -130 71 -50 -16 -83 47 -35 65 25 10 55
4 55 -10 0 -4 8 -11 17 -14 15 -6 15 -5 -1 13 -27 30 -54 35 -81 17 -30 -20
-32 -45 -7 -77 10 -13 35 -53 54 -89 42 -77 105 -181 117 -193 4 -4 -7 22 -25
59 -19 36 -34 76 -34 88 1 22 9 14 88 -81 l24 -28 -20 35 c-41 72 -84 161 -81
164 2 2 48 -29 103 -70 54 -41 102 -74 107 -74 5 0 17 8 27 18 17 17 18 26 6
119 -6 56 -15 106 -18 112 -4 6 -2 11 3 11 6 0 22 -21 36 -47 24 -45 66 -108
84 -126 5 -5 -13 34 -38 86 -58 120 -72 150 -68 153 4 5 107 -134 107 -145 0
-5 7 -14 15 -21 22 -18 18 -5 -10 40 -14 22 -25 42 -25 44 0 3 -22 42 -50 88
-27 46 -50 88 -50 94 0 12 -22 24 -41 24 -6 0 -21 -11 -35 -25z m56 -4 c13
-26 13 -71 -1 -71 -41 0 -65 50 -37 78 17 17 26 15 38 -7z m-20 -183 c0 -19
-2 -20 -10 -8 -13 19 -13 30 0 30 6 0 10 -10 10 -22z m22 -185 c10 -9 18 -20
18 -25 0 -14 -22 -9 -36 10 -25 33 -13 44 18 15z M7696 2190 c-18 -44 -7 -81
44 -141 88 -104 69 -166 -39 -128 -33 11 -61 52 -61 88 0 11 -3 22 -8 25 -16
10 1 -74 19 -91 11 -10 28 -27 39 -37 28 -28 83 -26 115 4 35 32 32 50 -17
107 -77 87 -94 124 -77 165 6 16 9 31 5 35 -3 3 -12 -9 -20 -27z M6320 1916
c0 -8 47 -56 54 -56 4 0 24 -12 44 -27 20 -16 33 -22 29 -16 -9 15 -127 107
-127 99z M8534 1871 c43 -23 88 -41 100 -41 11 0 -15 16 -59 35 -115 50 -133
53 -41 6z M8407 1868 c7 -8 31 -23 53 -33 37 -17 49 -33 34 -48 -8 -8 -94
-200 -94 -210 0 -22 23 11 55 76 19 40 44 89 57 110 28 47 19 66 -43 87 -24 8
-51 19 -59 24 -12 8 -13 7 -3 -6z M8557 1797 c-8 -6 -23 -34 -31 -62 -9 -27
-27 -72 -40 -100 -13 -27 -31 -70 -41 -95 -9 -25 -22 -48 -28 -52 -9 -6 -8 -8
1 -8 7 0 27 30 44 68 48 108 100 216 111 229 7 10 19 7 51 -12 45 -27 71 -31
81 -15 3 6 -1 7 -9 4 -8 -3 -39 8 -69 25 -44 25 -57 28 -70 18z M6530 1750
c14 -12 37 -32 52 -46 14 -13 31 -24 37 -24 14 0 -42 49 -84 74 l-30 17 25
-21z M13354 1665 c50 -188 76 -236 121 -227 13 2 30 11 36 19 11 12 9 12 -15
2 -35 -16 -40 -10 -81 88 -34 82 -71 152 -61 118z M6655 1654 c36 -28 61 -36
30 -10 -16 14 -34 26 -40 26 -5 -1 -1 -8 10 -16z M13346 1519 c30 -74 61 -140
68 -147 11 -11 25 -8 80 14 37 14 65 28 64 30 -5 4 -76 -20 -84 -29 -4 -4 -17
-7 -29 -7 -18 0 -26 11 -44 65 -19 54 -85 182 -105 202 -3 3 19 -54 50 -128z
M6720 1610 c0 -6 10 -14 23 -19 12 -5 33 -19 47 -33 14 -13 42 -32 63 -43 20
-11 37 -23 37 -26 0 -10 71 -50 81 -47 5 2 -34 32 -86 68 -151 103 -165 111
-165 100z M9129 1530 c-68 -71 -98 -179 -66 -237 10 -18 12 -10 12 55 0 97 14
129 77 181 34 27 45 41 33 41 -10 0 -35 -18 -56 -40z M9393 1529 c56 -51 70
-93 60 -179 -11 -99 -82 -173 -177 -186 -39 -6 -52 -2 -98 26 -29 18 -64 42
-77 54 l-24 21 23 -33 c29 -40 112 -82 159 -82 77 1 171 73 207 159 38 90 0
192 -91 246 -21 13 -15 5 18 -26z M15275 1536 c-28 -19 -93 -62 -145 -95 -52
-34 -92 -61 -88 -61 14 0 88 42 88 50 0 4 8 11 18 14 23 9 61 31 75 45 6 6 19
11 29 11 10 0 18 7 18 15 0 8 6 15 13 15 8 0 22 9 32 20 26 28 16 25 -40 -14z
M9188 1520 c-9 -5 -29 -31 -44 -57 -38 -65 -37 -148 4 -199 15 -19 36 -34 47
-34 16 0 14 4 -12 20 -43 26 -53 48 -53 115 0 43 6 65 22 88 33 48 49 56 101
57 95 0 147 -45 147 -126 0 -49 -35 -121 -68 -139 -17 -9 -21 -14 -11 -15 16
0 53 36 82 80 10 15 17 45 17 76 0 57 -22 94 -71 119 -36 19 -139 29 -161 15z
M12811 1465 c33 -48 34 -53 32 -134 -3 -100 -23 -139 -92 -182 -24 -16 -38
-29 -29 -29 17 0 83 46 110 76 26 30 48 89 48 132 0 45 -39 128 -76 163 -23
21 -22 18 7 -26z M12519 1483 c-36 -43 -40 -55 -10 -25 19 18 32 35 29 37 -3
3 -11 -3 -19 -12z M12566 1449 c-41 -32 -59 -75 -52 -121 8 -50 37 -106 70
-137 22 -21 32 -23 77 -18 29 4 57 11 63 17 13 13 4 13 -30 -1 -32 -12 -101 9
-126 39 -22 26 -41 107 -34 145 6 32 45 79 76 90 13 5 12 6 -1 6 -9 1 -28 -8
-43 -20z M12750 1442 c19 -19 32 -47 40 -85 13 -65 9 -85 -27 -127 -30 -36
-16 -40 21 -5 40 37 49 70 34 127 -11 46 -65 118 -88 118 -5 0 4 -13 20 -28z
M6990 1430 c0 -6 7 -13 15 -17 24 -9 27 1 5 15 -13 8 -20 8 -20 2z M7040 1402
c0 -12 19 -26 26 -19 2 2 -2 10 -11 17 -9 8 -15 8 -15 2z M10097 1390 c-21 -4
-43 -13 -50 -20 -10 -10 -8 -10 10 -1 12 6 37 11 57 11 19 0 38 5 41 10 7 11
-2 11 -58 0z M10220 1376 c0 -2 14 -14 30 -26 17 -12 30 -19 30 -16 0 2 -13
14 -30 26 -16 12 -30 19 -30 16z M14957 1336 c-54 -33 -63 -42 -46 -44 13 -2
26 3 31 12 5 9 16 16 24 16 8 0 17 7 20 15 4 8 12 15 19 15 13 0 31 18 24 24
-2 2 -35 -15 -72 -38z M9987 1318 c-106 -132 -61 -290 96 -344 42 -14 51 -14
103 1 31 9 54 19 51 22 -3 3 -20 0 -38 -6 -50 -17 -96 -13 -149 14 -64 32 -83
64 -91 144 -7 70 7 120 51 181 32 45 16 36 -23 -12z M7140 1335 c0 -8 6 -15
14 -15 7 0 19 -7 26 -15 13 -16 45 -21 36 -6 -3 5 -22 18 -41 30 -28 16 -35
17 -35 6z M10060 1313 c-59 -44 -74 -71 -75 -133 0 -65 27 -108 87 -140 46
-24 77 -25 104 -5 18 14 17 15 -8 4 -21 -9 -35 -8 -73 6 -89 34 -120 125 -72
210 26 46 57 65 109 65 48 0 87 -15 121 -48 22 -21 29 -24 40 -12 10 10 9 11
-1 5 -9 -4 -25 4 -45 23 -61 58 -130 68 -187 25z M11672 1283 c-1 -34 -5 -68
-8 -77 -7 -19 -24 -11 -24 12 0 9 -9 35 -20 57 -11 22 -18 31 -15 20 7 -24 25
-151 31 -225 10 -118 32 -160 68 -131 14 11 15 28 11 92 l-6 77 58 7 c32 3 74
8 94 11 l36 5 6 -71 c6 -76 18 -100 48 -100 34 0 39 30 23 136 -8 54 -18 133
-21 174 -5 59 -8 69 -14 45 -4 -16 -7 -50 -8 -75 -2 -40 -3 -43 -12 -20 -6 13
-16 31 -24 40 -7 8 -16 26 -19 40 -3 14 -3 0 -1 -31 6 -65 10 -62 -119 -75
l-64 -7 -6 44 c-3 24 -7 60 -9 79 -2 19 -5 7 -5 -27z m188 -112 c0 -5 -7 -15
-16 -22 -26 -21 -154 -16 -133 6 5 5 98 22 132 24 9 0 17 -3 17 -8z m-175
-116 c7 -16 16 -47 20 -67 6 -30 4 -39 -9 -44 -27 -10 -31 2 -32 94 0 48 1 78
3 67 3 -11 10 -33 18 -50z m280 -36 c8 -23 -7 -45 -24 -35 -12 8 -15 39 -4 49
12 12 22 7 28 -14z M10967 1235 c-43 -47 -82 -83 -86 -80 -4 2 -7 39 -5 82 2
80 1 78 -17 -16 -13 -65 -27 -57 -43 24 -10 51 -11 35 -11 -135 0 -167 2 -194
16 -203 30 -19 49 -1 48 45 l-2 43 -6 -40 c-4 -28 -11 -41 -25 -43 -17 -4 -18
1 -12 59 9 78 16 109 25 109 4 0 5 -15 3 -34 -2 -18 1 -37 7 -40 7 -4 11 1 11
13 0 18 35 61 50 61 3 0 28 -29 54 -65 26 -36 50 -65 52 -65 2 0 -14 29 -36
64 -64 101 -53 115 23 28 60 -67 61 -54 2 24 -24 32 -45 64 -45 69 0 6 32 43
70 83 39 40 70 81 70 90 0 12 -4 9 -14 -9 -7 -14 -37 -47 -67 -75 -29 -27 -66
-62 -82 -78 -15 -16 -30 -26 -33 -23 -7 7 61 108 105 156 29 32 35 41 29 41
-2 0 -38 -38 -81 -85z M9225 1219 c8 -11 45 -12 64 0 9 6 -1 9 -28 9 -23 1
-39 -3 -36 -9z M12499 1215 c23 -50 76 -87 139 -100 24 -5 24 -4 -5 9 -34 16
-108 70 -131 96 -11 13 -12 12 -3 -5z M7684 1031 c4 -6 15 -11 25 -11 10 0 24
-7 31 -15 7 -8 20 -15 30 -15 10 0 23 -7 30 -15 7 -8 22 -15 34 -15 13 0 -5
13 -45 34 -78 40 -114 53 -105 37z M7860 950 c0 -9 39 -25 46 -18 2 3 -7 10
-21 16 -14 6 -25 7 -25 2z M11049 917 c25 -28 55 -35 67 -16 4 7 0 9 -13 5
-13 -4 -30 2 -49 16 l-29 22 24 -27z M14160 914 l-25 -14 26 0 c15 0 29 7 33
15 6 18 -1 18 -34 -1z M14096 885 c-11 -8 -15 -15 -9 -15 19 0 43 12 43 21 0
13 -12 11 -34 -6z M13530 665 c-107 -38 -306 -100 -450 -141 -76 -22 -125 -40
-112 -42 13 -2 44 4 69 12 26 9 59 16 75 16 16 0 58 14 95 30 36 17 73 30 82
30 19 0 102 28 116 40 5 4 28 10 50 13 55 7 143 39 149 55 7 15 5 15 -74 -13z
M8890 561 c0 -12 26 -21 58 -21 23 1 22 3 -13 15 -48 18 -45 17 -45 6z M8995
530 c27 -12 43 -12 25 0 -8 5 -22 9 -30 9 -10 0 -8 -3 5 -9z M9580 14930 c-20
-6 -21 -8 -5 -8 11 0 34 4 50 8 27 7 27 8 5 8 -14 0 -36 -4 -50 -8z M9503
14913 c9 -2 23 -2 30 0 6 3 -1 5 -18 5 -16 0 -22 -2 -12 -5z M10020 14910 c0
-5 6 -10 14 -10 8 0 18 5 21 10 3 6 -3 10 -14 10 -12 0 -21 -4 -21 -10z M9435
14900 l-20 -9 20 0 c11 0 27 4 35 9 13 9 13 10 0 9 -8 0 -24 -4 -35 -9z M9363
14883 c9 -2 25 -2 35 0 9 3 1 5 -18 5 -19 0 -27 -2 -17 -5z M9265 14867 c-144
-36 -178 -47 -140 -43 47 5 193 41 202 50 8 8 -13 6 -62 -7z M12770 14870 c8
-5 22 -9 30 -9 10 0 8 3 -5 9 -27 12 -43 12 -25 0z M12833 14853 c9 -2 23 -2
30 0 6 3 -1 5 -18 5 -16 0 -22 -2 -12 -5z M12895 14840 c11 -5 27 -9 35 -9 13
-1 13 0 0 9 -8 5 -24 9 -35 9 l-20 0 20 -9z M12963 14823 c9 -2 23 -2 30 0 6
3 -1 5 -18 5 -16 0 -22 -2 -12 -5z M9035 14810 c-13 -5 -14 -9 -5 -9 8 0 24 4
35 9 13 5 14 9 5 9 -8 0 -24 -4 -35 -9z M9402 14813 c-12 -2 -20 -8 -18 -12 7
-10 66 -1 66 10 0 9 -8 10 -48 2z M9330 14791 c0 -5 9 -7 20 -4 11 3 20 7 20
9 0 2 -9 4 -20 4 -11 0 -20 -4 -20 -9z M8900 14774 c-31 -8 -37 -13 -20 -13
14 0 39 6 55 14 37 17 24 16 -35 -1z M9158 14763 c-31 -5 -39 -23 -10 -23 28
0 62 12 62 21 0 9 -4 9 -52 2z M8810 14750 c-13 -9 -13 -10 0 -10 8 0 22 5 30
10 13 9 13 10 0 10 -8 0 -22 -5 -30 -10z M8695 14715 c-22 -8 -31 -14 -20 -14
11 0 34 6 50 14 38 17 22 17 -30 0z M9010 14720 c0 -13 20 -13 40 0 12 8 9 10
-12 10 -16 0 -28 -4 -28 -10z M8595 14684 l-40 -14 39 5 c22 2 44 9 50 15 13
13 1 11 -49 -6z M8500 14654 l-35 -13 31 0 c17 -1 37 6 44 14 15 18 8 17 -40
-1z M8325 14595 c-66 -23 -136 -50 -155 -58 l-35 -16 31 -1 c16 0 34 4 40 9 5
5 43 21 84 36 137 49 155 56 165 66 15 15 -2 10 -130 -36z M8090 14508 c-14
-5 -38 -16 -55 -23 -16 -7 -69 -29 -118 -49 -48 -20 -118 -50 -155 -67 -128
-58 -129 -59 -106 -59 11 0 29 7 40 15 10 8 24 15 30 15 6 0 38 12 70 27 33
14 65 28 73 29 8 2 31 10 50 20 20 9 50 22 66 29 17 7 37 16 45 20 8 3 35 17
60 30 46 24 46 32 0 13z M14266 14385 c10 -8 23 -15 28 -15 6 0 1 7 -10 15
-10 8 -23 15 -28 15 -6 0 -1 -7 10 -15z M14334 14356 c11 -9 24 -16 30 -16 12
0 7 5 -24 19 -24 11 -24 11 -6 -3z M14334 14255 c11 -8 29 -15 39 -15 16 0 17
3 7 15 -7 8 -24 15 -39 15 -25 -1 -25 -1 -7 -15z M14910 14066 c0 -6 87 -56
97 -56 8 0 -83 60 -92 60 -3 0 -5 -2 -5 -4z M15020 14001 c0 -10 30 -24 37
-17 3 2 -5 9 -16 16 -12 6 -21 7 -21 1z M15084 13965 c11 -8 24 -15 30 -15 5
0 1 7 -10 15 -10 8 -23 14 -29 14 -5 0 -1 -6 9 -14z M14951 13946 c2 -2 15 -9
29 -15 24 -11 24 -11 6 3 -16 13 -49 24 -35 12z M15135 13940 c7 -11 65 -43
65 -36 0 2 -16 13 -36 25 -19 12 -32 16 -29 11z M15095 13860 c-3 -5 5 -12 17
-16 13 -4 26 -11 29 -16 4 -6 15 -8 25 -6 14 3 9 9 -23 25 -24 12 -45 17 -48
13z M15320 13825 c0 -3 39 -31 88 -63 48 -32 113 -76 144 -100 65 -48 85 -56
36 -14 -56 48 -268 187 -268 177z M15245 13767 c11 -6 22 -12 25 -12 3 0 10
-3 15 -6 16 -9 45 -19 45 -15 0 9 -72 46 -88 46 -14 -1 -14 -2 3 -13z M15660
13482 c0 -5 7 -13 16 -16 10 -4 14 -1 12 6 -5 15 -28 23 -28 10z M15830 13467
c0 -3 35 -34 78 -68 42 -34 80 -68 85 -75 4 -7 38 -35 75 -62 37 -27 112 -92
167 -144 55 -52 140 -133 190 -179 49 -46 112 -106 140 -134 28 -27 62 -59 76
-69 56 -45 -325 327 -426 415 -193 169 -385 326 -385 316z M15780 13379 c0
-16 26 -39 44 -39 19 0 20 5 6 31 -11 20 -50 27 -50 8z M5829 13173 l-24 -26
27 19 c15 10 28 22 28 27 0 12 -5 8 -31 -20z"/>

  </g>

  <g transform="translate(0.000000,1572.000000) scale(0.100000,-0.100000)" fill="url(#silverGrad)" stroke="none">

<path d="M10560 15050 c-47 -5 -143 -14 -215 -19 -271 -22 -763 -96 -870 -131
-17 -5 -57 -14 -90 -19 -33 -5 -96 -19 -140 -31 -44 -12 -102 -25 -130 -30
-50 -9 -85 -17 -185 -46 -30 -9 -68 -19 -85 -24 -69 -18 -182 -54 -212 -66
-17 -8 -42 -14 -56 -14 -13 0 -30 -7 -37 -15 -7 -8 -25 -15 -40 -15 -16 0 -41
-7 -57 -15 -15 -8 -66 -28 -113 -46 -47 -17 -98 -37 -113 -45 -16 -8 -39 -14
-52 -14 -20 0 -81 -24 -125 -49 -8 -5 -32 -16 -52 -25 -21 -9 -53 -23 -71 -32
-19 -8 -40 -16 -48 -18 -8 -1 -40 -15 -73 -29 -32 -15 -64 -27 -70 -27 -6 0
-20 -7 -30 -15 -11 -8 -30 -15 -43 -15 -13 0 -23 -5 -23 -10 0 -6 -10 -15 -22
-20 -13 -6 -30 -14 -38 -19 -8 -5 -35 -19 -60 -32 -25 -12 -51 -29 -58 -36 -7
-7 -20 -13 -28 -13 -8 0 -14 -4 -14 -10 0 -15 12 -12 71 18 31 16 102 48 160
72 89 37 289 122 354 150 56 25 99 40 114 40 9 0 27 6 41 13 14 7 54 24 90 37
36 13 70 27 75 31 16 11 299 99 321 99 11 0 51 9 89 21 88 26 154 38 160 29 6
-10 -61 -40 -90 -40 -13 0 -30 -6 -37 -13 -7 -7 -39 -21 -70 -32 -32 -10 -58
-23 -58 -27 0 -12 12 -10 61 8 24 9 61 20 82 25 20 5 54 13 75 18 20 5 64 16
97 24 33 8 113 29 178 46 65 17 149 36 185 41 37 6 95 21 130 33 58 19 61 22
41 33 -14 7 -35 8 -55 4 -19 -5 -37 -4 -40 1 -3 5 -2 9 3 9 4 0 36 5 71 10 52
9 66 8 87 -6 18 -11 39 -15 77 -11 79 7 252 33 350 51 48 10 102 16 120 14 38
-3 164 7 333 27 138 16 401 35 493 35 35 0 62 4 62 10 0 6 -25 10 -55 10 -69
0 -72 16 -5 22 69 7 104 0 89 -18 -15 -19 6 -22 206 -29 250 -9 344 -15 400
-26 28 -6 109 -15 180 -20 252 -19 330 -27 360 -38 32 -11 245 -41 298 -41 18
0 81 -16 140 -35 60 -19 119 -35 131 -35 21 0 135 -27 211 -49 16 -5 66 -17
110 -27 44 -9 123 -29 175 -45 52 -15 129 -37 170 -48 41 -11 98 -29 125 -40
28 -11 77 -29 110 -40 167 -55 480 -175 500 -191 5 -4 47 -20 93 -35 45 -15
98 -38 116 -50 18 -12 59 -32 91 -44 98 -37 620 -316 665 -357 14 -12 39 -29
57 -38 17 -8 66 -40 110 -69 99 -67 213 -131 221 -123 3 4 0 12 -6 18 -43 43
37 26 102 -21 l50 -36 -27 -9 c-36 -13 -34 -29 8 -52 19 -10 35 -23 35 -29 0
-6 15 -22 33 -35 54 -40 58 -44 105 -88 30 -27 53 -42 67 -40 11 2 19 9 17 16
-5 26 30 24 71 -4 52 -35 173 -139 207 -177 14 -16 49 -44 78 -63 89 -58 348
-313 638 -630 98 -107 210 -244 324 -394 30 -40 56 -68 58 -62 3 10 -62 111
-135 208 -70 94 -280 346 -312 374 -9 8 -38 44 -65 80 -47 63 -128 146 -306
313 -47 44 -130 123 -184 174 -55 52 -124 113 -155 135 -31 23 -81 64 -112 92
-30 28 -80 70 -110 93 -30 24 -83 66 -119 94 -36 28 -75 56 -87 62 -13 6 -23
14 -23 19 0 4 -5 8 -10 8 -6 0 -36 18 -66 41 -49 36 -219 153 -293 201 -33 22
-109 65 -175 100 -28 14 -56 31 -63 37 -7 6 -15 11 -19 11 -3 0 -54 29 -113
64 -134 81 -462 246 -488 246 -7 0 -13 5 -13 10 0 6 -7 10 -16 10 -9 0 -28 6
-42 14 -61 32 -159 75 -185 82 -15 3 -30 10 -33 15 -3 5 -12 9 -20 9 -9 0 -41
12 -72 26 -127 58 -459 173 -727 252 -128 38 -184 52 -390 99 -38 8 -92 21
-120 29 -253 66 -645 128 -1085 170 -180 18 -1006 27 -1140 14z m-505 -140
c-3 -5 -12 -10 -20 -10 -8 0 -17 5 -20 10 -4 6 5 10 20 10 15 0 24 -4 20 -10z
m-701 -120 c-10 -4 -21 -6 -24 -3 -8 7 24 22 34 16 5 -4 1 -10 -10 -13z m-144
-29 c0 -9 -34 -21 -62 -21 -29 0 -21 18 10 23 48 7 52 7 52 -2z m-162 -42 c-7
-5 -22 -9 -33 -9 -19 1 -19 1 -2 15 11 7 26 11 34 8 12 -5 12 -7 1 -14z m5332
-464 c10 -12 9 -15 -7 -15 -10 0 -28 7 -39 15 -18 14 -18 14 7 15 15 0 32 -7
39 -15z m619 -321 c2 -2 2 -7 -2 -10 -3 -3 -16 2 -29 11 l-23 17 25 -7 c14 -4
27 -9 29 -11z m167 -112 c-10 -2 -21 0 -25 6 -3 5 -16 12 -29 16 -12 4 -20 11
-17 16 3 4 24 -1 48 -13 32 -16 37 -22 23 -25z m128 -63 c20 -12 36 -23 36
-25 0 -4 -29 6 -45 15 -5 3 -12 6 -15 6 -3 0 -14 6 -25 12 -17 11 -17 12 -3
13 9 0 33 -9 52 -21z m400 -290 c-7 -11 -31 -1 -38 16 -4 11 0 12 19 3 13 -6
22 -15 19 -19z m136 -98 c14 -26 13 -31 -6 -31 -18 0 -44 23 -44 39 0 19 39
12 50 -8z M8548 14549 c-24 -14 -23 -28 2 -22 11 3 20 12 20 19 0 16 0 16 -22
3z M8238 14443 c-21 -5 -24 -23 -5 -23 7 0 22 7 33 15 20 15 9 18 -28 8z
M7350 14141 c0 -5 -13 -11 -30 -14 -27 -6 -43 -27 -20 -27 11 0 90 40 90 46 0
2 -9 4 -20 4 -11 0 -20 -4 -20 -9z M11214 14072 c-7 -4 -11 -44 -11 -107 1
-55 -4 -185 -10 -290 -7 -117 -7 -194 -1 -200 9 -10 337 -47 350 -39 3 2 9 18
13 35 12 54 -1 59 -158 59 l-140 0 7 63 c4 34 11 130 16 212 5 83 12 175 16
206 6 53 5 56 -17 62 -31 9 -51 8 -65 -1z M10281 14049 c-81 -19 -149 -73
-181 -144 -55 -119 -61 -159 -36 -251 35 -131 159 -233 283 -234 81 0 180 40
228 93 82 90 106 255 54 373 -55 124 -209 196 -348 163z m150 -93 c78 -32 105
-70 135 -189 20 -77 5 -143 -46 -197 -61 -65 -125 -78 -235 -48 -40 11 -115
72 -115 93 0 7 -8 27 -17 45 -22 44 -21 155 1 179 9 10 16 21 16 25 0 18 62
84 92 100 38 19 113 16 169 -8z M12127 13983 c-3 -5 -6 -41 -6 -81 0 -39 -6
-82 -13 -94 -26 -46 -54 -169 -66 -290 -4 -37 -13 -73 -20 -80 -20 -20 -14
-48 12 -60 39 -17 56 -4 56 43 0 23 6 65 14 93 27 96 46 201 46 253 0 35 5 57
17 68 16 16 18 16 35 -5 12 -15 18 -39 18 -75 0 -59 32 -232 49 -263 6 -12 11
-36 11 -54 0 -42 18 -108 30 -108 5 0 17 12 27 26 10 14 35 45 55 69 20 25 65
86 99 137 34 51 65 95 69 98 3 3 12 19 19 37 7 17 21 39 32 49 17 15 19 15 25
0 3 -9 -3 -44 -14 -79 -31 -96 -45 -156 -52 -227 -3 -36 -14 -80 -23 -98 -21
-39 -10 -68 30 -78 32 -9 53 15 51 60 -1 28 8 78 42 231 6 28 17 82 25 120 7
39 22 93 33 121 23 56 19 68 -21 83 -56 22 -80 14 -109 -33 -16 -24 -28 -47
-28 -53 0 -5 -15 -27 -33 -49 -53 -63 -143 -199 -156 -235 -12 -34 -38 -69
-53 -69 -4 0 -8 33 -8 73 0 76 -16 166 -49 282 -11 39 -21 88 -21 111 0 22 -6
47 -12 56 -14 17 -103 34 -111 21z M9383 13898 c-25 -12 -32 -55 -13 -74 6 -6
23 -51 39 -100 31 -97 28 -114 -19 -114 -34 0 -127 -19 -155 -31 -11 -5 -40
-15 -65 -24 -56 -18 -66 -9 -75 74 -4 31 -15 81 -25 111 -15 50 -20 55 -49 58
-22 2 -33 -2 -38 -14 -7 -18 8 -85 37 -174 46 -136 80 -259 80 -286 0 -16 6
-49 14 -74 12 -41 16 -45 49 -48 29 -3 37 1 42 18 4 14 1 28 -9 39 -9 10 -16
28 -16 42 0 13 -12 54 -26 91 -32 81 -27 93 49 101 57 7 186 44 202 58 5 5 19
9 32 9 18 0 24 -8 31 -37 5 -21 15 -58 21 -83 7 -25 16 -67 19 -95 6 -40 11
-51 28 -53 11 -2 31 6 44 16 22 18 22 20 8 48 -15 28 -32 86 -49 169 -21 100
-37 163 -49 185 -7 12 -16 55 -21 94 -5 38 -12 78 -15 88 -6 20 -37 23 -71 6z
M15519 13540 c23 -20 41 -26 41 -14 0 11 -34 33 -50 33 -10 0 -8 -6 9 -19z
M8175 13454 c-33 -8 -73 -21 -90 -29 -16 -7 -65 -30 -107 -49 -43 -20 -78 -42
-78 -49 0 -7 14 -26 30 -42 17 -16 30 -34 30 -39 0 -6 21 -56 46 -111 25 -55
51 -116 58 -135 8 -19 28 -58 45 -85 17 -28 31 -59 30 -70 -5 -67 11 -71 78
-19 52 39 83 54 116 54 57 0 147 105 172 201 22 83 19 123 -18 203 -65 137
-181 201 -312 170z m120 -83 c107 -48 183 -216 144 -318 -15 -40 -64 -88 -112
-109 -23 -10 -57 -30 -75 -45 -42 -33 -72 -29 -72 10 0 15 -41 110 -91 210
-50 101 -87 186 -82 191 4 4 44 24 88 44 91 40 140 45 200 17z M13891 13385
c-12 -31 -21 -62 -21 -70 0 -12 -18 -47 -107 -206 -12 -22 -29 -60 -39 -87 -9
-26 -28 -62 -41 -80 -26 -34 -23 -52 7 -52 10 0 38 -15 62 -33 24 -17 75 -47
113 -66 39 -18 80 -43 93 -54 21 -20 25 -20 50 -6 31 17 43 66 18 74 -29 9
-40 15 -111 55 -38 21 -78 39 -87 40 -30 0 -68 23 -68 40 0 9 8 25 19 34 10 9
26 42 36 72 10 31 24 58 32 61 19 8 79 -23 169 -88 56 -40 85 -39 106 5 12 27
-2 56 -26 56 -6 0 -42 13 -81 29 -38 16 -85 35 -102 41 -42 16 -43 46 -4 84
19 18 32 43 36 68 9 50 26 56 73 25 21 -13 60 -35 88 -47 27 -12 63 -33 81
-46 50 -37 93 -27 93 22 0 16 -13 28 -57 48 -32 15 -69 33 -83 41 -37 22 -135
65 -147 65 -6 0 -16 7 -23 15 -7 8 -23 15 -36 15 -18 0 -26 -10 -43 -55z
M15892 13259 c6 -17 56 -44 65 -35 4 5 2 11 -5 13 -7 3 -19 11 -26 19 -17 17
-39 19 -34 3z M16156 13028 c12 -20 48 -58 56 -58 4 0 -2 16 -13 35 -12 19
-28 35 -36 35 -9 0 -11 -5 -7 -12z M14762 12978 c-7 -7 -12 -16 -12 -20 0 -9
-53 -92 -88 -138 -29 -39 -90 -126 -145 -209 -28 -42 -61 -85 -74 -96 -26 -22
-23 -55 4 -55 14 0 140 -78 173 -107 41 -36 103 -83 109 -83 24 0 46 34 42 67
0 6 -55 43 -121 82 -65 40 -122 77 -126 83 -4 7 5 23 23 37 16 14 55 64 87
111 89 133 103 151 161 212 30 32 55 62 55 67 0 10 -57 61 -69 61 -4 0 -12 -5
-19 -12z M7215 12901 c-40 -10 -75 -28 -105 -56 -31 -29 -129 -95 -140 -95 -5
0 -12 -5 -15 -10 -9 -15 14 -40 35 -40 10 0 20 -10 23 -22 7 -25 124 -168 138
-168 35 0 -37 131 -100 183 -12 10 -21 23 -18 30 3 11 62 46 163 99 27 13 50
19 67 14 35 -8 97 -71 98 -98 2 -31 2 -27 -6 -78 l-7 -45 31 35 c39 46 48 89
27 143 -37 98 -95 131 -191 108z M7287 12594 c-15 -8 -50 -38 -77 -66 l-49
-51 39 -59 c21 -32 50 -83 65 -113 17 -37 32 -55 44 -55 20 0 51 30 51 50 0
12 -38 59 -117 143 -40 43 -38 60 9 80 18 8 39 26 47 40 8 15 18 27 23 27 4 0
8 5 8 10 0 13 -10 12 -43 -6z M7380 12572 c0 -22 21 -35 93 -56 33 -10 67 -27
79 -41 25 -29 40 -31 78 -8 52 30 40 73 -20 73 -12 0 -36 6 -53 14 -30 12
-137 36 -165 36 -7 0 -12 -8 -12 -18z M6363 12215 c-50 -21 -118 -91 -148
-150 -26 -51 -27 -59 -21 -140 4 -48 11 -98 16 -111 14 -35 115 -128 158 -144
20 -7 48 -21 62 -31 21 -16 34 -17 86 -10 261 38 355 302 176 494 -56 59 -78
71 -166 91 -82 19 -121 20 -163 1z m211 -75 c62 -42 89 -71 110 -115 10 -22
25 -52 33 -67 20 -41 16 -115 -9 -157 -28 -47 -84 -98 -128 -117 -90 -39 -257
49 -321 169 -28 52 -31 65 -25 110 14 104 88 186 187 207 61 12 106 3 153 -30z
M17271 11912 c6 -15 21 -41 35 -59 13 -17 24 -36 24 -42 0 -5 6 -16 13 -23 7
-7 32 -41 56 -75 38 -55 61 -76 61 -58 0 14 -46 95 -79 140 -20 28 -47 66 -58
85 -12 19 -31 41 -42 47 -19 12 -20 11 -10 -15z M16022 11878 c-12 -12 -126
-53 -247 -89 -38 -11 -97 -34 -130 -50 -33 -16 -82 -33 -109 -38 -73 -14 -84
-41 -27 -73 l32 -18 46 35 c53 41 113 49 113 16 0 -20 105 -156 129 -166 8 -3
19 -1 24 4 15 15 -19 73 -75 128 -27 26 -48 52 -48 59 0 11 40 28 140 59 30 9
68 26 84 37 40 29 96 41 103 22 3 -8 0 -21 -7 -29 -7 -9 -8 -15 -2 -15 5 0 12
7 16 15 3 8 12 15 19 15 8 0 20 7 27 15 20 24 -16 85 -50 85 -14 0 -31 -5 -38
-12z M15988 11703 c-27 -30 -58 -92 -58 -116 0 -9 -4 -19 -10 -22 -5 -3 -10
-14 -10 -24 0 -28 -29 -80 -83 -150 -48 -62 -49 -65 -34 -90 26 -43 40 -36 70
37 15 37 27 75 27 84 0 8 7 21 15 28 8 7 15 18 15 25 0 7 7 18 15 25 8 7 15
23 15 36 0 13 5 24 10 24 6 0 15 10 21 23 6 12 19 38 30 57 19 35 26 90 11 90
-5 0 -20 -12 -34 -27z M8253 11582 l-503 -2 0 -79 c0 -51 4 -82 13 -88 6 -6
46 -14 87 -17 199 -19 409 -91 538 -186 94 -68 275 -257 384 -400 15 -19 53
-67 85 -106 81 -99 171 -211 330 -415 166 -213 246 -313 513 -647 112 -142
227 -286 255 -321 27 -35 84 -105 125 -156 41 -50 118 -147 170 -214 52 -67
145 -184 206 -259 60 -75 170 -216 243 -312 74 -96 145 -187 158 -202 14 -14
59 -72 102 -127 169 -223 291 -380 375 -485 50 -61 127 -160 173 -221 46 -60
115 -150 154 -200 39 -49 111 -144 161 -210 50 -66 108 -140 128 -165 21 -25
102 -130 180 -235 79 -104 158 -207 176 -227 18 -20 72 -90 121 -155 49 -65
110 -145 135 -178 26 -33 55 -76 66 -95 31 -58 51 -47 85 45 36 101 227 648
317 906 37 107 75 209 84 226 9 18 13 39 9 49 -5 15 -20 16 -140 9 l-134 -7
-45 49 c-24 26 -76 89 -115 138 -122 157 -356 453 -603 761 -267 333 -327 408
-376 474 -56 73 -223 285 -230 290 -6 5 -41 49 -284 366 -55 71 -177 226 -271
344 -94 118 -202 256 -240 305 -38 50 -99 126 -135 170 -37 44 -104 130 -150
190 -47 61 -121 155 -166 210 -123 153 -315 394 -455 570 -105 132 -343 432
-457 573 l-27 33 -270 2 c-148 1 -496 1 -772 -1z M12158 11583 c-32 -5 -35
-13 -30 -81 4 -59 20 -72 85 -72 58 0 214 -38 279 -68 215 -98 325 -336 358
-772 7 -94 10 -548 9 -1283 0 -626 1 -1141 4 -1143 9 -10 39 51 73 149 49 140
188 467 298 700 l65 137 4 698 c3 586 6 719 21 832 48 373 147 565 340 660 99
49 212 78 329 87 51 3 90 11 92 17 2 6 6 35 9 63 9 91 100 84 -967 81 -518 -1
-954 -3 -969 -5z M17550 11481 c0 -6 5 -13 11 -16 5 -4 15 -18 20 -32 5 -14
12 -23 16 -19 7 7 -28 76 -39 76 -5 0 -8 -4 -8 -9z M5655 11440 c-25 -27 -14
-44 47 -73 29 -13 64 -35 78 -48 40 -37 97 -72 201 -121 58 -28 106 -59 123
-79 24 -29 30 -31 52 -20 31 14 27 31 -12 52 -16 8 -69 41 -119 73 -49 33
-124 80 -165 105 -41 25 -92 65 -115 89 -45 47 -63 51 -90 22z M16552 11168
c-17 -18 -48 -42 -69 -53 -21 -10 -68 -39 -105 -62 -37 -24 -70 -43 -73 -43
-3 0 -41 -20 -85 -45 -44 -25 -86 -45 -94 -45 -7 0 -16 -7 -20 -15 -6 -18 2
-45 15 -45 5 0 20 -21 33 -47 13 -27 51 -82 85 -124 60 -75 62 -77 116 -84 57
-7 95 -1 95 16 0 5 6 9 13 9 28 0 62 102 40 123 -3 4 -19 -20 -35 -53 -27 -56
-31 -60 -63 -60 -69 0 -117 37 -160 124 -14 28 -35 64 -48 79 -22 28 -22 29
-3 43 11 8 35 14 53 14 18 0 33 4 33 8 0 15 73 82 89 82 9 0 24 9 33 19 9 11
36 25 60 32 24 7 56 26 73 41 16 16 36 27 43 26 21 -4 111 -178 111 -214 1
-45 -55 -94 -107 -94 -44 0 -73 27 -117 108 -16 29 -37 58 -47 63 -10 5 -18 8
-18 7 12 -76 75 -178 109 -178 9 0 35 -10 57 -22 38 -20 46 -21 80 -9 49 16
81 42 94 76 16 42 12 69 -20 126 -40 72 -64 124 -85 182 -21 57 -39 60 -83 15z
M5446 11108 c-9 -12 -14 -24 -11 -26 7 -7 84 31 79 40 -10 16 -53 8 -68 -14z
M5556 11121 c-12 -19 24 -26 146 -26 104 0 141 6 127 20 -3 2 -64 7 -135 11
-95 5 -133 4 -138 -5z M5606 10996 c2 -6 18 -20 34 -31 17 -11 32 -27 35 -35
3 -8 22 -26 42 -40 53 -35 156 -120 166 -136 12 -21 44 -17 61 8 13 18 13 26
3 41 -11 17 -81 63 -132 86 -11 5 -37 21 -58 35 -21 14 -41 26 -44 26 -3 0
-20 11 -37 23 -36 27 -77 41 -70 23z M8790 10683 c0 -5 0 -803 0 -1775 1
-1705 -3 -1981 -31 -2223 -54 -481 -219 -650 -684 -696 -66 -6 -125 -15 -131
-20 -10 -8 -12 -114 -2 -124 4 -4 1606 -8 1981 -5 4 0 7 31 7 69 l0 69 -92 7
c-51 4 -136 18 -188 31 -228 58 -332 143 -419 344 -18 43 -40 143 -62 281 -19
125 -21 198 -30 1104 -5 534 -7 1319 -3 1746 l6 775 -53 63 c-132 156 -193
231 -235 294 -42 60 -64 81 -64 60z M5058 10089 c-10 -5 -18 -22 -18 -37 0
-15 -7 -36 -15 -46 -8 -11 -15 -30 -15 -42 0 -12 -12 -46 -26 -74 -14 -28 -30
-64 -34 -78 -5 -15 -18 -52 -30 -82 -29 -74 -37 -100 -65 -206 -13 -50 -30
-104 -37 -120 -8 -16 -22 -56 -32 -89 -9 -33 -30 -102 -47 -153 -17 -51 -40
-143 -51 -205 -10 -62 -23 -134 -28 -162 -19 -102 -24 -158 -12 -152 5 4 13
26 17 50 8 50 30 142 51 212 8 28 19 73 24 100 21 113 34 163 56 217 12 31 26
74 30 95 9 56 56 210 78 258 8 17 22 55 31 85 10 30 31 82 47 116 15 34 28 68
28 78 0 9 14 40 30 69 17 30 30 60 30 69 0 8 9 25 20 38 23 26 25 41 8 58 -14
14 -18 14 -40 1z M16987 10062 c-17 -18 -16 -22 17 -88 19 -38 42 -87 51 -109
9 -22 26 -60 37 -85 21 -45 80 -211 101 -285 7 -22 15 -44 18 -50 4 -5 14 -37
24 -70 9 -33 39 -128 66 -210 27 -83 49 -162 49 -177 0 -15 5 -39 11 -55 6
-15 14 -48 19 -73 5 -25 22 -97 39 -160 17 -63 31 -141 31 -172 0 -32 5 -58
10 -58 15 0 12 89 -5 172 -9 40 -22 111 -30 158 -7 47 -18 103 -23 125 -6 22
-18 76 -27 120 -32 158 -51 236 -76 310 -36 106 -61 172 -69 187 -6 10 -10 26
-10 35 -1 10 -9 36 -20 58 -11 22 -19 45 -20 51 0 6 -7 24 -14 40 -8 16 -22
55 -30 88 -9 32 -19 63 -24 70 -5 6 -16 34 -26 61 -10 28 -21 59 -26 70 -5 11
-10 29 -12 40 -4 27 -40 31 -61 7z M13949 9573 c-15 -3 -179 -330 -179 -355 0
-5 -6 -22 -14 -36 -57 -111 -155 -322 -181 -392 -71 -186 -92 -250 -85 -255 9
-6 50 42 50 57 0 29 100 134 143 150 15 5 27 14 27 19 0 5 7 9 15 9 9 0 26 10
38 23 13 12 31 21 41 19 10 -2 23 1 29 7 6 6 21 11 33 11 12 0 24 7 28 15 3 8
17 20 31 27 14 6 25 17 25 24 0 7 8 11 19 9 19 -3 101 49 101 65 0 18 62 52
95 52 32 0 40 7 36 31 -3 15 20 47 30 42 5 -4 9 -2 9 4 0 6 11 13 24 17 14 3
32 14 42 25 9 10 25 19 36 19 10 0 34 16 52 35 25 25 43 35 65 35 17 0 36 7
43 16 17 20 66 75 96 106 63 66 80 79 84 68 5 -15 148 124 148 144 0 14 -47
16 -432 15 -238 -1 -440 -3 -449 -6z M13420 8408 c0 -19 2 -20 10 -8 13 19 13
30 0 30 -5 0 -10 -10 -10 -22z M4233 8183 c-18 -6 -16 -20 5 -27 9 -3 23 -9
30 -12 7 -3 12 2 12 14 0 20 -24 32 -47 25z M4665 8180 c-8 -14 4 -32 18 -27
7 2 20 0 30 -5 12 -6 17 -5 17 6 0 26 -52 47 -65 26z M17356 8168 c-11 -15
-12 -26 -6 -39 9 -16 12 -16 40 -3 32 17 40 48 14 58 -25 10 -32 7 -48 -16z
M17820 8160 c-12 -16 -17 -30 -11 -30 5 0 13 5 16 10 9 15 45 12 51 -5 9 -21
24 -19 24 4 0 18 -34 51 -52 51 -3 0 -16 -13 -28 -30z M14525 8048 c-16 -5
-130 -9 -251 -8 -122 0 -234 -2 -248 -6 -68 -17 -7 -24 206 -24 204 0 234 -2
250 -17 17 -15 23 -16 61 -3 43 16 61 45 35 61 -15 10 -14 10 -53 -3z M4870
7753 c1 -11 26 -43 34 -43 3 0 6 11 6 25 0 18 -5 25 -20 25 -11 0 -20 -3 -20
-7z M17176 7744 c-17 -17 -21 -40 -8 -48 10 -6 92 33 92 44 0 23 -63 26 -84 4z
M17640 7750 c0 -5 12 -10 28 -10 21 0 24 2 12 10 -20 13 -40 13 -40 0z M13205
7578 c-27 -10 -28 -12 -10 -19 29 -11 243 -11 250 0 9 16 -5 19 -110 25 -64 4
-111 2 -130 -6z M4527 6298 c10 -95 23 -175 35 -213 l13 -40 3 54 c2 29 -2 67
-7 84 -6 16 -11 42 -11 56 0 36 -19 101 -30 101 -4 0 -6 -19 -3 -42z M13199
6133 c-33 -34 -89 -139 -89 -164 0 -11 6 -19 14 -19 25 0 111 161 104 195 -2
14 -7 12 -29 -12z M17510 6136 c0 -15 4 -25 9 -22 10 7 9 31 -2 42 -4 4 -7 -5
-7 -20z M17516 6091 c-4 -7 -5 -15 -2 -18 9 -9 19 4 14 18 -4 11 -6 11 -12 0z
M4586 6022 c-9 -15 1 -69 15 -77 10 -7 10 28 0 65 -5 17 -9 21 -15 12z M17458
5904 c-5 -4 -8 -26 -7 -48 0 -37 1 -39 10 -16 11 27 8 76 -3 64z M4674 5659
c3 -17 6 -35 6 -40 0 -5 5 -9 10 -9 11 0 13 39 4 64 -11 29 -27 17 -20 -15z
M17384 5646 c-7 -28 2 -49 17 -41 12 8 12 52 -1 60 -5 3 -12 -5 -16 -19z
M4707 5563 c-9 -14 28 -152 45 -168 12 -12 5 46 -15 117 -14 51 -22 64 -30 51z
M17360 5544 c0 -14 4 -23 10 -19 6 3 10 15 10 26 0 10 -4 19 -10 19 -5 0 -10
-12 -10 -26z M17337 5466 c-4 -10 -5 -21 -2 -24 9 -9 17 6 13 25 -3 17 -4 17
-11 -1z M4766 5372 c-8 -13 25 -123 46 -154 10 -14 18 -33 18 -41 0 -9 5 -19
10 -22 6 -3 10 -1 10 6 0 17 -31 110 -46 141 -8 14 -14 35 -14 46 0 23 -15 38
-24 24z M17278 5306 c-10 -10 -18 -24 -18 -33 0 -8 -6 -29 -14 -46 -8 -18 -22
-62 -32 -99 -10 -38 -22 -68 -26 -68 -3 0 -9 -13 -13 -29 -3 -16 -13 -35 -21
-42 -16 -13 -19 -59 -4 -59 5 0 13 12 16 28 4 15 13 36 20 47 8 11 14 26 14
34 0 8 6 22 13 30 22 27 89 208 85 232 -3 22 -4 22 -20 5z M4856 5132 c-7 -12
9 -70 39 -137 14 -33 31 -69 35 -80 78 -176 89 -195 112 -194 13 0 17 3 11 6
-7 2 -13 15 -13 28 0 13 -6 28 -12 32 -7 4 -24 31 -37 58 -13 28 -28 58 -32
67 -5 10 -9 25 -9 34 0 9 -6 28 -14 42 -26 48 -56 118 -56 130 0 14 -17 25
-24 14z M9170 5059 c-19 -5 -64 -9 -100 -8 -120 1 -130 0 -130 -16 0 -12 18
-15 105 -15 79 0 120 -5 161 -19 61 -22 68 -18 62 36 -2 23 -8 28 -33 30 -16
1 -46 -3 -65 -8z M9940 5037 c0 -30 45 -54 66 -36 8 6 14 22 14 35 0 21 -5 24
-40 24 -35 0 -40 -3 -40 -23z M12995 5050 c-22 -5 -59 -7 -82 -3 -35 4 -43 2
-43 -10 0 -24 18 -30 50 -17 20 8 34 9 48 1 10 -6 74 -11 142 -12 85 -2 126
-6 135 -16 8 -7 18 -13 24 -13 6 0 15 -9 21 -20 12 -23 30 -27 30 -7 0 15 -41
56 -80 80 -30 19 -187 30 -245 17z M8822 5038 c5 -15 37 -18 41 -3 1 6 -9 12
-22 13 -16 3 -22 -1 -19 -10z M17122 4908 c-7 -7 -12 -20 -12 -29 0 -10 -4
-21 -10 -24 -9 -6 -42 -73 -55 -114 -12 -38 14 -22 37 22 25 47 61 147 55 153
-2 2 -9 -2 -15 -8z M7947 4753 c-4 -3 -199 -8 -434 -10 -574 -4 -731 -8 -739
-16 -4 -4 279 -7 629 -7 403 0 637 4 637 10 0 22 -76 41 -93 23z M9146 4744
c-58 -21 -56 -24 18 -24 59 0 67 2 64 18 -4 22 -33 25 -82 6z M13038 4748
c-48 -16 -30 -28 42 -28 40 0 70 4 70 10 0 6 -3 10 -7 10 -5 0 -24 4 -43 9
-19 4 -47 4 -62 -1z M14115 4743 c-18 -17 8 -18 900 -21 505 -1 920 0 923 3
12 12 -22 35 -42 29 -26 -9 -1665 -7 -1722 2 -32 4 -45 2 -59 -13z M6190 4735
c0 -11 11 -15 41 -15 36 0 40 2 29 15 -7 8 -25 15 -41 15 -19 0 -29 -5 -29
-15z M6377 4728 c-7 -4 33 -8 87 -8 55 0 97 2 94 5 -9 9 -169 11 -181 3z
M8965 4730 c-4 -6 5 -10 19 -10 14 0 26 5 26 10 0 6 -9 10 -19 10 -11 0 -23
-4 -26 -10z M16980 3113 c-51 -56 -92 -114 -85 -121 3 -4 12 0 18 9 21 27 61
80 85 110 30 37 15 38 -18 2z M5111 3110 c0 -21 27 -55 36 -46 4 4 3 10 -3 14
-6 4 -16 16 -22 27 -8 14 -11 15 -11 5z M16815 2908 c-22 -23 -56 -64 -77 -91
-20 -26 -72 -87 -117 -135 -117 -127 -150 -166 -145 -172 7 -6 282 287 314
334 8 12 27 36 43 52 22 23 36 54 25 54 -2 0 -21 -19 -43 -42z M5261 2920 c0
-15 48 -77 108 -140 18 -19 48 -54 66 -77 31 -41 328 -356 370 -393 11 -10 43
-37 70 -60 28 -24 95 -85 151 -136 55 -51 114 -103 130 -116 16 -12 52 -42 80
-67 28 -25 70 -59 94 -76 23 -16 61 -43 84 -60 23 -16 80 -59 127 -95 46 -36
102 -76 124 -90 22 -13 66 -43 97 -67 31 -24 60 -43 63 -43 4 0 24 -13 45 -30
21 -16 41 -30 45 -30 4 0 24 -14 45 -30 21 -17 41 -30 46 -30 4 0 16 -7 26
-17 10 -9 49 -32 86 -52 38 -20 118 -65 178 -102 141 -84 241 -135 249 -127
11 11 -5 28 -25 28 -10 0 -20 7 -24 15 -3 8 -12 15 -19 15 -8 0 -20 7 -27 15
-7 8 -21 15 -32 15 -10 0 -21 7 -24 15 -4 8 -14 15 -24 15 -10 0 -23 7 -30 15
-7 8 -20 15 -29 15 -9 0 -31 14 -49 30 -18 17 -41 30 -51 30 -10 0 -24 7 -31
15 -7 8 -19 15 -26 15 -8 0 -14 6 -14 13 0 14 -54 47 -76 47 -8 0 -17 7 -20
15 -4 8 -15 15 -25 15 -11 0 -22 7 -25 15 -4 8 -12 15 -19 15 -18 0 -85 40
-85 50 0 4 -8 11 -17 14 -28 10 -56 29 -88 59 -17 15 -35 27 -42 27 -7 0 -16
6 -20 13 -4 7 -25 23 -45 36 -21 12 -38 27 -38 32 0 5 -9 9 -20 9 -10 0 -23 6
-27 13 -4 7 -28 28 -53 47 -25 18 -50 38 -55 44 -14 15 -104 76 -112 76 -3 0
-20 15 -37 34 -30 33 -83 70 -118 82 -10 4 -18 13 -18 20 0 8 -3 14 -7 14 -5
0 -22 14 -40 30 -18 17 -36 30 -42 30 -18 0 -403 377 -606 594 -172 183 -199
213 -222 242 -14 18 -22 23 -22 14z M16414 2464 c-21 -15 -75 -65 -119 -112
-44 -47 -91 -95 -104 -106 -14 -12 -40 -36 -58 -53 -19 -18 -36 -33 -40 -33
-5 0 -63 -55 -190 -177 -19 -18 -40 -33 -48 -33 -8 0 -15 -4 -15 -8 0 -5 -30
-30 -66 -57 -36 -26 -74 -56 -83 -65 -9 -9 -29 -26 -46 -36 -16 -10 -34 -24
-38 -31 -4 -7 -15 -13 -22 -13 -8 0 -15 -4 -15 -8 0 -9 -88 -75 -112 -85 -10
-3 -18 -11 -18 -17 0 -5 -7 -10 -15 -10 -9 0 -18 -7 -21 -15 -4 -8 -14 -15
-23 -15 -9 0 -32 -13 -51 -30 -19 -16 -41 -29 -47 -30 -7 0 -13 -7 -13 -15 0
-8 -8 -15 -18 -15 -10 0 -23 -5 -29 -11 -14 -14 -52 -36 -75 -45 -10 -3 -18
-10 -18 -14 0 -5 -21 -19 -47 -32 -27 -13 -52 -29 -56 -35 -4 -7 -12 -13 -17
-13 -6 0 -19 -8 -29 -17 -41 -37 -51 -43 -75 -43 -13 0 -26 -7 -30 -15 -3 -8
-11 -15 -18 -15 -19 -1 -73 -48 -65 -56 7 -7 49 10 77 32 8 6 49 29 90 51 76
39 96 52 229 139 41 27 97 64 125 81 28 18 62 43 76 56 14 13 39 32 55 42 17
11 64 44 105 75 41 30 95 68 118 83 44 29 174 138 224 189 15 16 31 28 35 28
5 0 16 8 24 18 9 9 38 35 65 57 27 22 78 68 114 101 36 34 81 75 99 90 79 66
246 244 228 244 -2 0 -22 -12 -43 -26z M7755 2240 c-38 -24 -60 -78 -45 -111
15 -36 31 -59 78 -112 49 -57 52 -75 17 -107 -32 -30 -86 -32 -115 -4 -11 10
-29 28 -40 38 -12 12 -20 33 -20 53 0 37 -25 56 -41 32 -33 -52 18 -129 105
-159 79 -26 89 -26 131 11 58 51 50 84 -46 210 -40 53 -42 67 -12 95 30 28 39
29 86 9 24 -10 41 -27 54 -54 13 -30 24 -41 41 -41 69 -1 -48 140 -128 154
-25 4 -43 0 -65 -14z M14252 2208 c-19 -19 -14 -56 8 -68 25 -13 40 -5 40 21
0 23 -17 59 -28 59 -5 0 -13 -5 -20 -12z M14320 2107 c0 -4 4 -15 9 -25 6 -9
30 -61 56 -115 39 -85 48 -98 68 -95 27 4 37 45 13 54 -9 3 -36 36 -61 73 -53
79 -84 119 -85 108z M13973 2040 c-46 -19 -11 -80 37 -65 26 8 76 -19 130 -71
45 -44 80 -57 80 -30 0 12 -22 33 -97 96 -7 5 -18 10 -25 10 -8 0 -21 8 -30
18 -20 21 -60 52 -68 51 -3 0 -15 -4 -27 -9z M14250 2033 c0 -5 5 -15 10 -23
8 -12 10 -11 10 8 0 12 -4 22 -10 22 -5 0 -10 -3 -10 -7z M8403 1904 c-8 -21
10 -36 64 -54 57 -19 74 -41 53 -72 -7 -13 -32 -59 -55 -103 -22 -44 -54 -100
-70 -124 -28 -41 -28 -44 -11 -56 27 -20 42 -9 61 43 9 26 28 70 41 97 13 28
31 73 40 100 24 75 37 81 101 44 57 -33 83 -33 83 0 0 21 -49 51 -82 51 -18 0
-51 14 -98 42 -8 4 -27 13 -42 19 -16 6 -28 15 -28 20 0 16 -50 10 -57 -7z
M14070 1835 c0 -11 13 -48 30 -82 21 -45 35 -63 49 -63 10 0 22 7 25 16 6 16
-12 44 -71 112 -27 31 -33 34 -33 17z M14260 1843 c1 -14 27 -43 39 -43 16 0
13 15 -7 33 -20 18 -32 22 -32 10z M13275 1739 c-11 -17 3 -54 55 -145 27 -47
59 -115 71 -150 22 -66 36 -76 77 -55 9 5 51 22 92 38 56 22 76 34 78 50 2 12
-4 23 -14 27 -15 6 -91 -24 -124 -50 -8 -6 -25 -14 -37 -16 -43 -11 -68 38
-125 247 -6 22 -15 46 -21 53 -12 15 -43 16 -52 1z M9215 1570 c-60 -27 -121
-89 -134 -135 -15 -53 -14 -134 2 -165 7 -14 41 -44 77 -68 59 -40 69 -43 112
-38 97 10 170 85 181 186 12 108 -20 167 -117 215 -58 29 -68 30 -121 5z m134
-65 c50 -25 71 -62 71 -120 0 -41 -6 -60 -28 -91 -37 -51 -49 -59 -100 -75
-34 -10 -48 -10 -63 -1 -10 7 -27 12 -36 12 -10 0 -30 15 -45 34 -41 51 -42
134 -4 199 15 26 35 52 44 57 22 14 125 4 161 -15z M12585 1518 c-90 -47 -131
-130 -114 -223 12 -66 29 -85 138 -157 39 -27 90 -22 142 11 70 44 89 83 92
183 2 78 0 86 -28 127 -54 80 -147 104 -230 59z m125 -44 c70 -14 136 -131
111 -197 -21 -54 -84 -94 -164 -104 -41 -5 -51 -3 -73 18 -58 53 -87 154 -61
205 35 68 100 95 187 78z M10109 1380 c-64 -8 -92 -30 -126 -97 -26 -52 -28
-65 -23 -128 6 -88 25 -118 92 -150 58 -28 93 -31 155 -12 51 15 68 30 60 51
-9 22 -46 20 -82 -4 -38 -25 -65 -25 -113 0 -60 32 -87 75 -87 140 1 62 17 91
76 134 59 41 125 32 186 -26 34 -33 53 -30 53 6 0 16 -13 32 -42 52 -50 34
-85 41 -149 34z M11875 1370 c-10 -16 5 -92 21 -110 7 -9 17 -26 22 -40 7 -19
10 -8 16 54 5 54 3 82 -5 92 -13 16 -45 19 -54 4z M11610 1328 c1 -24 32 -124
43 -134 10 -11 18 40 15 97 -3 51 -5 54 -30 57 -24 3 -28 0 -28 -20z M10815
1310 c-10 -16 4 -105 20 -126 11 -16 14 -12 24 35 18 82 15 101 -13 101 -14 0
-28 -5 -31 -10z M11015 1274 c-86 -100 -138 -200 -67 -128 15 16 56 55 90 88
66 62 77 86 39 86 -15 0 -37 -16 -62 -46z M14730 1184 c0 -9 7 -14 17 -12 25
5 28 28 4 28 -12 0 -21 -6 -21 -16z M11771 1169 c-30 -5 -57 -12 -60 -14 -21
-22 107 -27 133 -6 9 7 16 17 16 22 0 10 -15 10 -89 -2z M14674 1155 c-4 -8
-14 -15 -24 -15 -10 0 -23 -7 -30 -15 -7 -8 -21 -15 -32 -15 -10 0 -21 -7 -24
-15 -4 -8 -17 -15 -30 -15 -14 0 -27 -7 -30 -15 -4 -8 -17 -15 -30 -15 -14 0
-27 -7 -30 -15 -4 -8 -14 -15 -23 -15 -19 0 -66 -23 -128 -63 -24 -15 -54 -27
-68 -27 -14 0 -28 -7 -31 -15 -4 -8 -17 -15 -31 -15 -13 0 -31 -7 -39 -15 -9
-8 -26 -15 -40 -15 -14 0 -27 -7 -30 -15 -4 -8 -16 -15 -28 -15 -12 0 -29 -9
-39 -20 -9 -11 -28 -20 -42 -20 -28 0 -95 -30 -95 -42 0 -13 35 -9 56 7 10 8
27 15 36 15 18 0 33 6 151 59 37 17 70 31 74 31 7 0 158 72 223 106 14 7 52
27 85 44 33 17 67 38 76 46 8 8 21 14 29 14 7 0 34 13 59 28 25 16 54 31 64
35 9 3 17 11 17 17 0 16 -40 12 -46 -5z M11664 1038 c1 -92 5 -104 32 -94 13
5 15 14 9 44 -4 20 -13 51 -20 67 -8 17 -15 39 -18 50 -2 11 -3 -19 -3 -67z
M10950 1089 c0 -20 93 -160 116 -176 24 -15 44 -11 44 10 0 7 -25 39 -56 72
-30 33 -62 70 -71 83 -16 23 -33 29 -33 11z M7567 1073 c-12 -11 159 -106 284
-158 35 -15 85 -38 112 -51 50 -24 147 -56 147 -48 0 11 -56 53 -71 54 -8 0
-24 7 -35 15 -10 8 -29 15 -40 15 -12 0 -27 7 -34 15 -7 8 -21 15 -31 15 -9 0
-24 7 -33 15 -8 8 -23 15 -34 15 -11 0 -25 7 -32 15 -7 8 -20 15 -30 15 -10 0
-23 7 -30 15 -7 8 -21 15 -32 15 -10 0 -21 7 -24 15 -4 8 -17 15 -29 15 -13 0
-30 7 -39 15 -15 16 -38 20 -49 8z M10837 1058 c-3 -13 -9 -52 -13 -87 -6 -58
-5 -63 12 -59 17 3 19 13 19 86 0 80 -7 104 -18 60z M11937 1033 c-11 -10 -8
-41 4 -49 17 -10 32 12 24 35 -6 21 -16 26 -28 14z M8170 800 c-10 -6 -1 -14
36 -31 117 -53 204 -82 204 -68 0 5 -11 14 -24 19 -13 5 -27 14 -31 19 -3 6
-20 11 -36 11 -16 0 -41 7 -55 16 -13 9 -28 14 -31 10 -4 -3 -16 3 -27 13 -14
14 -26 17 -36 11z M13790 740 c-21 -6 -22 -8 -8 -14 9 -4 24 -3 34 2 22 12 5
21 -26 12z M13693 705 c-10 -8 -32 -15 -50 -15 -18 0 -36 -6 -40 -12 -10 -17
-97 -49 -148 -55 -22 -3 -45 -9 -50 -13 -14 -12 -97 -40 -116 -40 -9 0 -46
-13 -82 -30 -37 -16 -80 -30 -96 -30 -15 0 -48 -7 -71 -15 -23 -8 -58 -15 -77
-15 -19 0 -44 -5 -55 -11 -12 -7 -44 -17 -72 -25 -122 -31 -129 -32 -274 -60
-30 -6 -18 -24 16 -24 65 1 494 104 557 134 17 8 71 24 120 36 50 12 95 26
100 30 6 4 21 10 35 13 14 3 97 31 184 61 88 31 161 56 163 56 2 0 3 4 3 9 0
16 -28 20 -47 6z M8430 690 c0 -12 58 -39 135 -65 79 -25 125 -32 125 -17 0 9
-98 52 -119 52 -7 0 -27 6 -44 14 -35 16 -97 26 -97 16z M8804 555 c11 -8 27
-15 37 -15 9 0 47 -13 85 -28 38 -16 132 -43 209 -61 77 -18 176 -44 220 -58
47 -14 126 -28 190 -33 103 -9 146 -7 94 4 -13 2 -62 14 -109 25 -68 15 -165
32 -212 35 -3 1 -10 4 -14 9 -4 4 -18 7 -32 7 -13 0 -38 6 -55 14 -18 8 -48
19 -67 25 -19 5 -69 21 -110 36 -41 14 -87 25 -101 25 -15 0 -34 7 -43 15 -9
9 -33 15 -63 15 -44 -1 -47 -2 -29 -15z M12405 344 c-22 -8 -78 -17 -125 -20
-93 -6 -200 -32 -180 -44 7 -4 20 -6 29 -5 140 26 203 38 236 45 22 5 57 12
78 15 20 3 37 10 37 15 0 14 -29 12 -75 -6z M9850 320 c-38 -5 -41 -7 -20 -13
37 -10 79 -17 140 -23 50 -6 53 -5 35 8 -18 14 -36 20 -90 30 -11 2 -40 1 -65
-2z M10050 281 c0 -5 10 -12 23 -16 28 -8 360 -35 366 -29 14 14 -29 22 -143
28 -71 4 -137 11 -147 17 -22 11 -99 12 -99 0z M11925 273 c-11 -3 -24 -9 -29
-14 -17 -16 89 -10 110 6 18 13 16 14 -21 14 -22 -1 -49 -3 -60 -6z M11605
240 c-14 -6 -8 -8 23 -8 23 0 42 4 42 8 0 10 -39 10 -65 0z M10560 228 c0 -4
16 -8 35 -8 19 0 35 2 35 4 0 2 -16 6 -35 8 -19 2 -35 0 -35 -4z M11480 230
c-32 -4 -40 -8 -28 -14 9 -4 38 -1 65 7 51 16 38 18 -37 7z M10770 220 c-12
-8 -10 -10 8 -10 13 0 20 4 17 10 -7 12 -6 12 -25 0z M11140 221 c-38 -5 -50
-9 -38 -15 23 -11 118 -3 119 9 0 13 -13 13 -81 6z M10960 216 c0 -8 61 -12
66 -4 3 4 -11 8 -30 8 -20 0 -36 -2 -36 -4z"/>

  </g>
</svg>
